<svg width="13" height="25" viewBox="0 0 13 25" fill="none" xmlns="http://www.w3.org/2000/svg">
<path fill-rule="evenodd" clip-rule="evenodd" d="M6.24068 1.9538C6.32066 1.84654 6.48136 1.84654 6.56134 1.9538L11.1793 8.14662C11.2777 8.27854 11.1835 8.46618 11.019 8.46618H7.74782C7.7423 8.46618 7.73782 8.47066 7.73782 8.47618V14.6956C7.73782 14.6958 7.7394 14.6971 7.73955 14.6973L10.4098 17.6836L10.41 17.684C10.4101 17.6843 10.4107 17.6852 10.411 17.6852C10.4112 17.6852 10.4113 17.6854 10.4113 17.6855V23.6551C10.4113 23.6607 10.4068 23.6651 10.4013 23.6651H9.5301C9.52458 23.6651 9.5201 23.6607 9.5201 23.6551V17.6953C9.5201 17.6951 9.52009 17.6948 9.52007 17.6946V23.6651L8.18332 17.6853H7.73881L7.73813 17.685L7.73782 17.6851L7.73776 17.6852H5.07429C5.06877 17.6852 5.06429 17.6807 5.06429 17.6752V8.47618C5.06429 8.47066 5.05981 8.46618 5.05429 8.46618H1.78305C1.61849 8.46618 1.52435 8.27854 1.62272 8.14662L6.24068 1.9538ZM5.06324 17.6853H4.61857L3.28182 23.6651V23.6563C3.28126 23.6613 3.27702 23.6651 3.27188 23.6651H2.40071C2.39518 23.6651 2.39071 23.6607 2.39071 23.6551V17.6855C2.39071 17.6854 2.39083 17.6852 2.39099 17.6852C2.3913 17.6852 2.39189 17.6842 2.39201 17.6839L2.3922 17.6836L5.06249 14.6973C5.0631 14.6966 5.06424 14.6971 5.06424 14.698V17.6843C5.06424 17.6849 5.06379 17.6853 5.06324 17.6853ZM5.9554 17.6952C5.9554 17.6897 5.95988 17.6852 5.9654 17.6852H6.83658C6.8421 17.6852 6.84658 17.6897 6.84658 17.6952V23.6551C6.84658 23.6607 6.8421 23.6651 6.83658 23.6651H5.9654C5.95988 23.6651 5.9554 23.6607 5.9554 23.6551V17.6952Z" fill="black"/>
<path d="M6.56134 1.9538L5.75968 2.55159L5.75968 2.55159L6.56134 1.9538ZM6.24068 1.9538L7.04233 2.55159L7.04233 2.55159L6.24068 1.9538ZM11.1793 8.14662L11.9809 7.54883L11.9809 7.54883L11.1793 8.14662ZM7.73955 14.6973L6.99339 15.3631L6.9941 15.3639L7.73955 14.6973ZM10.4098 17.6836L11.2673 17.1691L11.2185 17.0878L11.1553 17.0171L10.4098 17.6836ZM10.41 17.684L11.3526 17.35L11.3191 17.2555L11.2675 17.1695L10.41 17.684ZM9.52007 17.6946L10.5175 17.6222L8.52007 17.6946H9.52007ZM9.52007 23.6651L8.54416 23.8833L10.5201 23.6651H9.52007ZM8.18332 17.6853L9.15924 17.4671L8.98446 16.6853H8.18332V17.6853ZM7.73881 17.6853L7.37885 18.6183L7.55259 18.6853H7.73881V17.6853ZM7.73813 17.685L8.09809 16.7521L7.78073 16.6296L7.45454 16.7261L7.73813 17.685ZM7.73782 17.6851L7.45423 16.7262L7.20833 16.7989L7.02776 16.981L7.73782 17.6851ZM7.73776 17.6852V18.6852H8.15443L8.44782 18.3893L7.73776 17.6852ZM1.62272 8.14662L0.821065 7.54883L0.821064 7.54883L1.62272 8.14662ZM4.61857 17.6853V16.6853H3.81743L3.64266 17.4671L4.61857 17.6853ZM3.28182 23.6651H2.28182L4.25773 23.8833L3.28182 23.6651ZM3.28182 23.6563H4.28182L2.28812 23.5442L3.28182 23.6563ZM2.39201 17.6839L1.54792 17.1477L1.5015 17.2208L1.46834 17.3008L2.39201 17.6839ZM2.3922 17.6836L1.64675 17.0171L1.59208 17.0782L1.5481 17.1474L2.3922 17.6836ZM5.06249 14.6973L5.80794 15.3639L5.80808 15.3637L5.06249 14.6973ZM7.36299 1.35601C6.88311 0.712472 5.91891 0.712471 5.43902 1.35601L7.04233 2.55159C6.72241 2.98061 6.0796 2.98061 5.75968 2.55159L7.36299 1.35601ZM11.9809 7.54883L7.36299 1.35601L5.75968 2.55159L10.3776 8.74441L11.9809 7.54883ZM11.019 9.46618C12.0063 9.46618 12.5712 8.34032 11.9809 7.54883L10.3776 8.74441C9.98417 8.21675 10.3607 7.46618 11.019 7.46618V9.46618ZM7.74782 9.46618H11.019V7.46618H7.74782V9.46618ZM8.73782 8.47618C8.73782 9.02294 8.29458 9.46618 7.74782 9.46618V7.46618C7.19001 7.46618 6.73782 7.91837 6.73782 8.47618H8.73782ZM8.73782 14.6956V8.47618H6.73782V14.6956H8.73782ZM8.48571 14.0315C8.46009 14.0028 8.43808 13.9817 8.43541 13.9791C8.42822 13.9722 8.42246 13.9668 8.42007 13.9646C8.41721 13.9619 8.41494 13.9598 8.4139 13.9589C8.41277 13.9579 8.41187 13.957 8.41168 13.9569C8.40951 13.9549 8.41549 13.9603 8.42181 13.9662C8.4253 13.9695 8.44575 13.9885 8.47002 14.0146C8.48011 14.0254 8.5107 14.0584 8.54474 14.1049C8.56109 14.1273 8.59453 14.1746 8.62792 14.2398C8.6451 14.2734 8.66924 14.3251 8.69035 14.3911C8.71033 14.4536 8.73782 14.5603 8.73782 14.6956H6.73782C6.73782 14.8308 6.76531 14.9375 6.7853 15.0001C6.80642 15.0661 6.83056 15.1178 6.84775 15.1514C6.88117 15.2167 6.91464 15.2641 6.93104 15.2864C6.96517 15.3331 6.99588 15.3663 7.00612 15.3773C7.03069 15.4037 7.05154 15.423 7.05545 15.4267C7.06218 15.433 7.06858 15.4388 7.06675 15.4371C7.06665 15.437 7.06583 15.4363 7.06477 15.4353C7.0638 15.4344 7.06159 15.4324 7.05879 15.4298C7.05646 15.4276 7.05075 15.4223 7.0436 15.4154C7.04097 15.4129 7.019 15.3918 6.99339 15.3631L8.48571 14.0315ZM11.1553 17.0171L8.485 14.0307L6.9941 15.3639L9.6644 18.3502L11.1553 17.0171ZM11.2675 17.1695L11.2673 17.1691L9.55235 18.1981L9.55255 18.1985L11.2675 17.1695ZM10.411 16.6852C10.6701 16.6852 10.8556 16.7845 10.9362 16.8343C11.0264 16.89 11.0882 16.9481 11.1201 16.9803C11.1846 17.0452 11.2254 17.1045 11.242 17.1292C11.2628 17.1604 11.2796 17.1893 11.2929 17.2144C11.3007 17.2291 11.3279 17.2802 11.3526 17.35L9.46746 18.0179C9.50509 18.1241 9.55268 18.2009 9.57894 18.2402C9.59566 18.2653 9.63667 18.3248 9.70135 18.3899C9.73342 18.4222 9.79532 18.4804 9.88555 18.5361C9.96628 18.5859 10.1519 18.6852 10.411 18.6852V16.6852ZM11.4113 17.6855C11.4113 17.1331 10.9634 16.6852 10.411 16.6852V18.6852C9.85887 18.6852 9.41128 18.2377 9.41128 17.6855H11.4113ZM11.4113 23.6551V17.6855H9.41128V23.6551H11.4113ZM10.4013 24.6651C10.9591 24.6651 11.4113 24.2129 11.4113 23.6551H9.41128C9.41128 23.1084 9.85445 22.6651 10.4013 22.6651V24.6651ZM9.5301 24.6651H10.4013V22.6651H9.5301V24.6651ZM8.5201 23.6551C8.5201 24.213 8.97229 24.6651 9.5301 24.6651V22.6651C10.0769 22.6651 10.5201 23.1084 10.5201 23.6551H8.5201ZM8.5201 17.6953V23.6551H10.5201V17.6953H8.5201ZM8.5227 17.7669C8.52099 17.7434 8.5201 17.7195 8.5201 17.6953H10.5201C10.5201 17.6706 10.5192 17.6462 10.5175 17.6222L8.5227 17.7669ZM8.52007 17.6946V23.6651H10.5201V17.6946H8.52007ZM10.496 23.447L9.15924 17.4671L7.20741 17.9035L8.54416 23.8833L10.496 23.447ZM7.73881 18.6853H8.18332V16.6853H7.73881V18.6853ZM7.37818 18.618L7.37885 18.6183L8.09876 16.7523L8.09809 16.7521L7.37818 18.618ZM8.02141 18.6441L8.02172 18.644L7.45454 16.7261L7.45423 16.7262L8.02141 18.6441ZM8.44782 18.3893L8.44788 18.3893L7.02776 16.981L7.0277 16.9811L8.44782 18.3893ZM5.07429 18.6852H7.73776V16.6852H5.07429V18.6852ZM4.06429 17.6752C4.06429 18.233 4.51645 18.6852 5.07429 18.6852V16.6852C5.62108 16.6852 6.06429 17.1285 6.06429 17.6752H4.06429ZM4.06429 8.47618V17.6752H6.06429V8.47618H4.06429ZM5.05429 9.46618C4.50753 9.46618 4.06429 9.02294 4.06429 8.47618H6.06429C6.06429 7.91837 5.6121 7.46618 5.05429 7.46618V9.46618ZM1.78305 9.46618H5.05429V7.46618H1.78305V9.46618ZM0.821064 7.54883C0.230854 8.34032 0.795715 9.46618 1.78305 9.46618V7.46618C2.44127 7.46618 2.81784 8.21675 2.42437 8.74441L0.821064 7.54883ZM5.43902 1.35601L0.821065 7.54883L2.42437 8.74441L7.04233 2.55159L5.43902 1.35601ZM4.61857 18.6853H5.06324V16.6853H4.61857V18.6853ZM4.25773 23.8833L5.59449 17.9035L3.64266 17.4671L2.30591 23.447L4.25773 23.8833ZM2.28182 23.6563V23.6651H4.28182V23.6563H2.28182ZM3.27188 24.6651C3.79171 24.6651 4.21858 24.2733 4.27552 23.7683L2.28812 23.5442C2.34394 23.0492 2.76234 22.6651 3.27188 22.6651V24.6651ZM2.40071 24.6651H3.27188V22.6651H2.40071V24.6651ZM1.39071 23.6551C1.39071 24.2129 1.8428 24.6651 2.40071 24.6651V22.6651C2.94757 22.6651 3.39071 23.1085 3.39071 23.6551H1.39071ZM1.39071 17.6855V23.6551H3.39071V17.6855H1.39071ZM2.39099 16.6852C1.83903 16.6852 1.39071 17.1326 1.39071 17.6855H3.39071C3.39071 18.2381 2.94264 18.6852 2.39099 18.6852V16.6852ZM1.46834 17.3008C1.50186 17.2199 1.5399 17.1583 1.5679 17.1176C1.58348 17.095 1.62354 17.0382 1.68628 16.9759C1.71732 16.945 1.77807 16.8884 1.86652 16.8339C1.94421 16.786 2.13014 16.6852 2.39099 16.6852V18.6852C2.65191 18.6852 2.83793 18.5845 2.91571 18.5366C3.00426 18.482 3.06511 18.4253 3.09624 18.3943C3.1592 18.3317 3.19947 18.2747 3.21524 18.2518C3.24365 18.2105 3.28204 18.1482 3.31569 18.0671L1.46834 17.3008ZM1.5481 17.1474L1.54792 17.1477L3.23611 18.2201L3.23629 18.2198L1.5481 17.1474ZM4.31704 14.0307L1.64675 17.0171L3.13765 18.3502L5.80794 15.3639L4.31704 14.0307ZM6.06424 14.698C6.06424 13.7793 4.92964 13.3454 4.3169 14.0309L5.80808 15.3637C5.19656 16.0479 4.06424 15.6148 4.06424 14.698H6.06424ZM6.06424 17.6843V14.698H4.06424V17.6843H6.06424ZM5.06324 18.6853C5.61545 18.6853 6.06424 18.2378 6.06424 17.6843H4.06424C4.06424 17.132 4.51213 16.6853 5.06324 16.6853V18.6853ZM5.9654 16.6852C5.40755 16.6852 4.9554 17.1375 4.9554 17.6952H6.9554C6.9554 18.242 6.51221 18.6852 5.9654 18.6852V16.6852ZM6.83658 16.6852H5.9654V18.6852H6.83658V16.6852ZM7.84658 17.6952C7.84658 17.1375 7.39442 16.6852 6.83658 16.6852V18.6852C6.28979 18.6852 5.84658 18.242 5.84658 17.6952H7.84658ZM7.84658 23.6551V17.6952H5.84658V23.6551H7.84658ZM6.83658 24.6651C7.39436 24.6651 7.84658 24.213 7.84658 23.6551H5.84658C5.84658 23.1084 6.28985 22.6651 6.83658 22.6651V24.6651ZM5.9654 24.6651H6.83658V22.6651H5.9654V24.6651ZM4.9554 23.6551C4.9554 24.2129 5.4075 24.6651 5.9654 24.6651V22.6651C6.51226 22.6651 6.9554 23.1085 6.9554 23.6551H4.9554ZM4.9554 17.6952V23.6551H6.9554V17.6952H4.9554Z" fill="black"/>
</svg>
