<svg width="99" height="53" viewBox="0 0 99 53" fill="none" xmlns="http://www.w3.org/2000/svg">
<path d="M13.6588 20.9181L14.0608 20.8409L14.1771 20.4484C15.4654 16.1019 17.7877 12.074 20.9363 8.87015L20.4793 8.42111L20.9363 8.87014C25.9364 3.78201 32.9683 0.818704 40.0344 0.818704C47.1005 0.818704 54.1324 3.78201 59.1325 8.87014L59.5821 8.42833L59.1325 8.87016C60.3488 10.1077 61.4399 11.4709 62.3992 12.9275L62.6487 13.3064L63.0935 13.2173C64.3943 12.9566 65.7157 12.8187 67.0377 12.8187C72.4929 12.8187 77.9232 15.1069 81.7843 19.0359C85.1364 22.447 87.2759 27.0683 87.7811 31.871L87.8441 32.4704L88.4469 32.4736C90.9342 32.4864 93.4107 33.5338 95.1725 35.3267L95.6525 34.855L95.1725 35.3267C96.9459 37.1313 97.9824 39.6755 97.9824 42.2326C97.9824 44.7899 96.9458 47.3356 95.1725 49.14C93.3996 50.9441 90.9034 51.9944 88.401 51.9944H16.4493C12.4257 51.9944 8.41802 50.3065 5.5693 47.4077C2.72022 44.5085 1.05705 40.4248 1.05705 36.3196C1.05705 32.2145 2.72018 28.1322 5.56929 25.2329C7.753 23.0109 10.6213 21.5015 13.6588 20.9181Z" fill="#FFFEFE"/>
<path d="M13.6588 20.9181L14.0608 20.8409L14.1771 20.4484C15.4654 16.1019 17.7877 12.074 20.9363 8.87015L20.4793 8.42111L20.9363 8.87014C25.9364 3.78201 32.9683 0.818704 40.0344 0.818704C47.1005 0.818704 54.1324 3.78201 59.1325 8.87014L59.5821 8.42833L59.1325 8.87016C60.3488 10.1077 61.4399 11.4709 62.3992 12.9275L62.6487 13.3064L63.0935 13.2173C64.3943 12.9566 65.7157 12.8187 67.0377 12.8187C72.4929 12.8187 77.9232 15.1069 81.7843 19.0359C85.1364 22.447 87.2759 27.0683 87.7811 31.871L87.8441 32.4704L88.4469 32.4736C90.9342 32.4864 93.4107 33.5338 95.1725 35.3267L95.6525 34.855L95.1725 35.3267C96.9459 37.1313 97.9824 39.6755 97.9824 42.2326C97.9824 44.7899 96.9458 47.3356 95.1725 49.14C93.3996 50.9441 90.9034 51.9944 88.401 51.9944H16.4493C12.4257 51.9944 8.41802 50.3065 5.5693 47.4077C2.72022 44.5085 1.05705 40.4248 1.05705 36.3196C1.05705 32.2145 2.72018 28.1322 5.56929 25.2329C7.753 23.0109 10.6213 21.5015 13.6588 20.9181Z" fill="#FFFEFE"/>
<path d="M13.6588 20.9181L14.0608 20.8409L14.1771 20.4484C15.4654 16.1019 17.7877 12.074 20.9363 8.87015L20.4793 8.42111L20.9363 8.87014C25.9364 3.78201 32.9683 0.818704 40.0344 0.818704C47.1005 0.818704 54.1324 3.78201 59.1325 8.87014L59.5821 8.42833L59.1325 8.87016C60.3488 10.1077 61.4399 11.4709 62.3992 12.9275L62.6487 13.3064L63.0935 13.2173C64.3943 12.9566 65.7157 12.8187 67.0377 12.8187C72.4929 12.8187 77.9232 15.1069 81.7843 19.0359C85.1364 22.447 87.2759 27.0683 87.7811 31.871L87.8441 32.4704L88.4469 32.4736C90.9342 32.4864 93.4107 33.5338 95.1725 35.3267L95.6525 34.855L95.1725 35.3267C96.9459 37.1313 97.9824 39.6755 97.9824 42.2326C97.9824 44.7899 96.9458 47.3356 95.1725 49.14C93.3996 50.9441 90.9034 51.9944 88.401 51.9944H16.4493C12.4257 51.9944 8.41802 50.3065 5.5693 47.4077C2.72022 44.5085 1.05705 40.4248 1.05705 36.3196C1.05705 32.2145 2.72018 28.1322 5.56929 25.2329C7.753 23.0109 10.6213 21.5015 13.6588 20.9181Z" stroke="black" stroke-width="1.34603"/>
<mask id="path-2-inside-1" fill="white">
<path fill-rule="evenodd" clip-rule="evenodd" d="M18.9079 29.2803C17.9815 29.9228 17.9816 31.2927 18.9081 31.935L30.0298 39.6459C31.1011 40.3886 32.5655 39.6219 32.5654 38.3184L32.5651 33.3642H68.2431C68.9865 33.3642 69.5891 32.7615 69.5891 32.0181V29.1738C69.5891 28.4304 68.9865 27.8277 68.2431 27.8277H32.5647L32.5644 22.8952C32.5643 21.5917 31.0998 20.8252 30.0287 21.568L18.9079 29.2803Z"/>
</mask>
<path fill-rule="evenodd" clip-rule="evenodd" d="M18.9079 29.2803C17.9815 29.9228 17.9816 31.2927 18.9081 31.935L30.0298 39.6459C31.1011 40.3886 32.5655 39.6219 32.5654 38.3184L32.5651 33.3642H68.2431C68.9865 33.3642 69.5891 32.7615 69.5891 32.0181V29.1738C69.5891 28.4304 68.9865 27.8277 68.2431 27.8277H32.5647L32.5644 22.8952C32.5643 21.5917 31.0998 20.8252 30.0287 21.568L18.9079 29.2803Z" fill="#1F8CEE"/>
<path d="M18.9081 31.935L19.675 30.8288L19.675 30.8288L18.9081 31.935ZM18.9079 29.2803L18.1408 28.1742L18.1408 28.1742L18.9079 29.2803ZM30.0298 39.6459L29.2629 40.7521L29.2629 40.7521L30.0298 39.6459ZM32.5654 38.3184L31.2194 38.3185L31.2194 38.3185L32.5654 38.3184ZM32.5651 33.3642V32.0181H31.219L31.2191 33.3642L32.5651 33.3642ZM32.5647 27.8277L31.2187 27.8278L31.2188 29.1738H32.5647V27.8277ZM32.5644 22.8952L31.2184 22.8953L31.2184 22.8953L32.5644 22.8952ZM30.0287 21.568L29.2617 20.4619L29.2617 20.4619L30.0287 21.568ZM19.675 30.8288C19.5206 30.7218 19.5205 30.4935 19.675 30.3864L18.1408 28.1742C16.4424 29.3521 16.4426 31.8635 18.1411 33.0412L19.675 30.8288ZM30.7968 38.5397L19.675 30.8288L18.1411 33.0412L29.2629 40.7521L30.7968 38.5397ZM31.2194 38.3185C31.2194 38.5357 30.9753 38.6635 30.7968 38.5397L29.2629 40.7521C31.2268 42.1137 33.9116 40.7081 33.9114 38.3183L31.2194 38.3185ZM31.2191 33.3642L31.2194 38.3185L33.9114 38.3183L33.9111 33.3641L31.2191 33.3642ZM68.2431 32.0181H32.5651V34.7102H68.2431V32.0181ZM68.2431 32.0181L68.2431 32.0181V34.7102C69.7299 34.7102 70.9351 33.5049 70.9351 32.0181H68.2431ZM68.2431 29.1738V32.0181H70.9351V29.1738H68.2431ZM68.2431 29.1738H68.2431H70.9351C70.9351 27.687 69.7299 26.4817 68.2431 26.4817V29.1738ZM32.5647 29.1738H68.2431V26.4817H32.5647V29.1738ZM31.2184 22.8953L31.2187 27.8278L33.9108 27.8277L33.9104 22.8951L31.2184 22.8953ZM30.7958 22.6741C30.9743 22.5503 31.2184 22.678 31.2184 22.8953L33.9104 22.8951C33.9103 20.5054 31.2254 19.1001 29.2617 20.4619L30.7958 22.6741ZM19.675 30.3864L30.7958 22.6741L29.2617 20.4619L18.1408 28.1742L19.675 30.3864Z" fill="#001425" mask="url(#path-2-inside-1)"/>
</svg>
