<svg width="99" height="53" viewBox="0 0 99 53" fill="none" xmlns="http://www.w3.org/2000/svg">
<path d="M13.2747 20.7724L13.6767 20.6952L13.7931 20.3027C15.0814 15.9562 17.4037 11.9283 20.5522 8.72445L20.0953 8.27541L20.5522 8.72445C25.5524 3.63632 32.5843 0.673013 39.6504 0.673013C46.7164 0.673013 53.7484 3.63632 58.7485 8.72445L59.1981 8.28264L58.7485 8.72447C59.9648 9.96206 61.0559 11.3252 62.0151 12.7818L62.2646 13.1607L62.7094 13.0716C64.0103 12.811 65.3317 12.673 66.6536 12.673C72.1089 12.673 77.5391 14.9612 81.4003 18.8902C84.7524 22.3013 86.8919 26.9227 87.397 31.7253L87.4601 32.3248L88.0629 32.3279C90.5502 32.3407 93.0266 33.3881 94.7884 35.181L95.2685 34.7093L94.7885 35.181C96.5619 36.9856 97.5984 39.5298 97.5984 42.0869C97.5984 44.6442 96.5618 47.1899 94.7885 48.9944C93.0155 50.7984 90.5194 51.8487 88.0169 51.8487H16.0652C12.0417 51.8487 8.03399 50.1608 5.18526 47.262C2.33618 44.3628 0.673013 40.2791 0.673013 36.1739C0.673013 32.0688 2.33614 27.9865 5.18526 25.0872C7.36897 22.8652 10.2373 21.3559 13.2747 20.7724Z" fill="#FFFEFE"/>
<path d="M13.2747 20.7724L13.6767 20.6952L13.7931 20.3027C15.0814 15.9562 17.4037 11.9283 20.5522 8.72445L20.0953 8.27541L20.5522 8.72445C25.5524 3.63632 32.5843 0.673013 39.6504 0.673013C46.7164 0.673013 53.7484 3.63632 58.7485 8.72445L59.1981 8.28264L58.7485 8.72447C59.9648 9.96206 61.0559 11.3252 62.0151 12.7818L62.2646 13.1607L62.7094 13.0716C64.0103 12.811 65.3317 12.673 66.6536 12.673C72.1089 12.673 77.5391 14.9612 81.4003 18.8902C84.7524 22.3013 86.8919 26.9227 87.397 31.7253L87.4601 32.3248L88.0629 32.3279C90.5502 32.3407 93.0266 33.3881 94.7884 35.181L95.2685 34.7093L94.7885 35.181C96.5619 36.9856 97.5984 39.5298 97.5984 42.0869C97.5984 44.6442 96.5618 47.1899 94.7885 48.9944C93.0155 50.7984 90.5194 51.8487 88.0169 51.8487H16.0652C12.0417 51.8487 8.03399 50.1608 5.18526 47.262C2.33618 44.3628 0.673013 40.2791 0.673013 36.1739C0.673013 32.0688 2.33614 27.9865 5.18526 25.0872C7.36897 22.8652 10.2373 21.3559 13.2747 20.7724Z" fill="#FFFEFE" fill-opacity="0.6"/>
<path d="M13.2747 20.7724L13.6767 20.6952L13.7931 20.3027C15.0814 15.9562 17.4037 11.9283 20.5522 8.72445L20.0953 8.27541L20.5522 8.72445C25.5524 3.63632 32.5843 0.673013 39.6504 0.673013C46.7164 0.673013 53.7484 3.63632 58.7485 8.72445L59.1981 8.28264L58.7485 8.72447C59.9648 9.96206 61.0559 11.3252 62.0151 12.7818L62.2646 13.1607L62.7094 13.0716C64.0103 12.811 65.3317 12.673 66.6536 12.673C72.1089 12.673 77.5391 14.9612 81.4003 18.8902C84.7524 22.3013 86.8919 26.9227 87.397 31.7253L87.4601 32.3248L88.0629 32.3279C90.5502 32.3407 93.0266 33.3881 94.7884 35.181L95.2685 34.7093L94.7885 35.181C96.5619 36.9856 97.5984 39.5298 97.5984 42.0869C97.5984 44.6442 96.5618 47.1899 94.7885 48.9944C93.0155 50.7984 90.5194 51.8487 88.0169 51.8487H16.0652C12.0417 51.8487 8.03399 50.1608 5.18526 47.262C2.33618 44.3628 0.673013 40.2791 0.673013 36.1739C0.673013 32.0688 2.33614 27.9865 5.18526 25.0872C7.36897 22.8652 10.2373 21.3559 13.2747 20.7724Z" stroke="black" stroke-width="1.34603"/>
<rect x="23" y="22" width="42" height="4" rx="2" fill="#020202"/>
<rect x="23" y="30" width="42" height="4" rx="2" fill="#020202"/>
<rect x="23" y="38" width="42" height="4" rx="2" fill="#020202"/>
</svg>
