<svg width="99" height="53" viewBox="0 0 99 53" fill="none" xmlns="http://www.w3.org/2000/svg">
<path d="M13.2747 20.7724L13.6767 20.6952L13.7931 20.3027C15.0814 15.9562 17.4037 11.9283 20.5522 8.72445L20.0953 8.27541L20.5522 8.72445C25.5524 3.63632 32.5843 0.673013 39.6504 0.673013C46.7164 0.673013 53.7484 3.63632 58.7485 8.72445L59.1981 8.28264L58.7485 8.72447C59.9648 9.96206 61.0559 11.3252 62.0151 12.7818L62.2646 13.1607L62.7094 13.0716C64.0103 12.811 65.3317 12.673 66.6536 12.673C72.1089 12.673 77.5391 14.9612 81.4003 18.8902C84.7524 22.3013 86.8919 26.9227 87.397 31.7253L87.4601 32.3248L88.0629 32.3279C90.5502 32.3407 93.0266 33.3881 94.7884 35.181L95.2685 34.7093L94.7885 35.181C96.5619 36.9856 97.5984 39.5298 97.5984 42.0869C97.5984 44.6442 96.5618 47.1899 94.7885 48.9944C93.0155 50.7984 90.5194 51.8487 88.0169 51.8487H16.0652C12.0417 51.8487 8.03399 50.1608 5.18526 47.262C2.33618 44.3628 0.673013 40.2791 0.673013 36.1739C0.673013 32.0688 2.33614 27.9865 5.18526 25.0872C7.36897 22.8652 10.2373 21.3559 13.2747 20.7724Z" fill="#FFFEFE"/>
<path d="M13.2747 20.7724L13.6767 20.6952L13.7931 20.3027C15.0814 15.9562 17.4037 11.9283 20.5522 8.72445L20.0953 8.27541L20.5522 8.72445C25.5524 3.63632 32.5843 0.673013 39.6504 0.673013C46.7164 0.673013 53.7484 3.63632 58.7485 8.72445L59.1981 8.28264L58.7485 8.72447C59.9648 9.96206 61.0559 11.3252 62.0151 12.7818L62.2646 13.1607L62.7094 13.0716C64.0103 12.811 65.3317 12.673 66.6536 12.673C72.1089 12.673 77.5391 14.9612 81.4003 18.8902C84.7524 22.3013 86.8919 26.9227 87.397 31.7253L87.4601 32.3248L88.0629 32.3279C90.5502 32.3407 93.0266 33.3881 94.7884 35.181L95.2685 34.7093L94.7885 35.181C96.5619 36.9856 97.5984 39.5298 97.5984 42.0869C97.5984 44.6442 96.5618 47.1899 94.7885 48.9944C93.0155 50.7984 90.5194 51.8487 88.0169 51.8487H16.0652C12.0417 51.8487 8.03399 50.1608 5.18526 47.262C2.33618 44.3628 0.673013 40.2791 0.673013 36.1739C0.673013 32.0688 2.33614 27.9865 5.18526 25.0872C7.36897 22.8652 10.2373 21.3559 13.2747 20.7724Z" fill="#FFFEFE"/>
<path d="M13.2747 20.7724L13.6767 20.6952L13.7931 20.3027C15.0814 15.9562 17.4037 11.9283 20.5522 8.72445L20.0953 8.27541L20.5522 8.72445C25.5524 3.63632 32.5843 0.673013 39.6504 0.673013C46.7164 0.673013 53.7484 3.63632 58.7485 8.72445L59.1981 8.28264L58.7485 8.72447C59.9648 9.96206 61.0559 11.3252 62.0151 12.7818L62.2646 13.1607L62.7094 13.0716C64.0103 12.811 65.3317 12.673 66.6536 12.673C72.1089 12.673 77.5391 14.9612 81.4003 18.8902C84.7524 22.3013 86.8919 26.9227 87.397 31.7253L87.4601 32.3248L88.0629 32.3279C90.5502 32.3407 93.0266 33.3881 94.7884 35.181L95.2685 34.7093L94.7885 35.181C96.5619 36.9856 97.5984 39.5298 97.5984 42.0869C97.5984 44.6442 96.5618 47.1899 94.7885 48.9944C93.0155 50.7984 90.5194 51.8487 88.0169 51.8487H16.0652C12.0417 51.8487 8.03399 50.1608 5.18526 47.262C2.33618 44.3628 0.673013 40.2791 0.673013 36.1739C0.673013 32.0688 2.33614 27.9865 5.18526 25.0872C7.36897 22.8652 10.2373 21.3559 13.2747 20.7724Z" stroke="black" stroke-width="1.34603"/>
<path d="M33.692 22.6L30.944 31H28.856L27.008 25.312L25.1 31H23.024L20.264 22.6H22.28L24.176 28.504L26.156 22.6H27.956L29.876 28.552L31.832 22.6H33.692ZM40.4888 27.796C40.4888 27.82 40.4768 27.988 40.4528 28.3H35.5688C35.6568 28.7 35.8648 29.016 36.1928 29.248C36.5208 29.48 36.9288 29.596 37.4168 29.596C37.7528 29.596 38.0488 29.548 38.3048 29.452C38.5688 29.348 38.8128 29.188 39.0368 28.972L40.0328 30.052C39.4248 30.748 38.5368 31.096 37.3688 31.096C36.6408 31.096 35.9968 30.956 35.4368 30.676C34.8768 30.388 34.4448 29.992 34.1408 29.488C33.8368 28.984 33.6848 28.412 33.6848 27.772C33.6848 27.14 33.8328 26.572 34.1288 26.068C34.4328 25.556 34.8448 25.16 35.3648 24.88C35.8928 24.592 36.4808 24.448 37.1288 24.448C37.7608 24.448 38.3328 24.584 38.8448 24.856C39.3568 25.128 39.7568 25.52 40.0448 26.032C40.3408 26.536 40.4888 27.124 40.4888 27.796ZM37.1408 25.864C36.7168 25.864 36.3608 25.984 36.0728 26.224C35.7848 26.464 35.6088 26.792 35.5448 27.208H38.7248C38.6608 26.8 38.4848 26.476 38.1968 26.236C37.9088 25.988 37.5568 25.864 37.1408 25.864ZM44.1633 24.448C45.1633 24.448 45.9313 24.688 46.4673 25.168C47.0033 25.64 47.2713 26.356 47.2713 27.316V31H45.5193V30.196C45.1673 30.796 44.5113 31.096 43.5513 31.096C43.0553 31.096 42.6233 31.012 42.2553 30.844C41.8953 30.676 41.6193 30.444 41.4273 30.148C41.2353 29.852 41.1393 29.516 41.1393 29.14C41.1393 28.54 41.3633 28.068 41.8113 27.724C42.2673 27.38 42.9673 27.208 43.9113 27.208H45.3993C45.3993 26.8 45.2753 26.488 45.0273 26.272C44.7793 26.048 44.4073 25.936 43.9113 25.936C43.5673 25.936 43.2273 25.992 42.8913 26.104C42.5633 26.208 42.2833 26.352 42.0513 26.536L41.3793 25.228C41.7313 24.98 42.1513 24.788 42.6393 24.652C43.1353 24.516 43.6433 24.448 44.1633 24.448ZM44.0193 29.836C44.3393 29.836 44.6233 29.764 44.8713 29.62C45.1193 29.468 45.2953 29.248 45.3993 28.96V28.3H44.1153C43.3473 28.3 42.9633 28.552 42.9633 29.056C42.9633 29.296 43.0553 29.488 43.2393 29.632C43.4313 29.768 43.6913 29.836 44.0193 29.836ZM53.1296 30.688C52.9456 30.824 52.7176 30.928 52.4456 31C52.1816 31.064 51.9016 31.096 51.6056 31.096C50.8376 31.096 50.2416 30.9 49.8176 30.508C49.4016 30.116 49.1936 29.54 49.1936 28.78V26.128H48.1976V24.688H49.1936V23.116H51.0656V24.688H52.6736V26.128H51.0656V28.756C51.0656 29.028 51.1336 29.24 51.2696 29.392C51.4136 29.536 51.6136 29.608 51.8696 29.608C52.1656 29.608 52.4176 29.528 52.6256 29.368L53.1296 30.688ZM58.1044 24.448C58.9044 24.448 59.5484 24.688 60.0364 25.168C60.5324 25.648 60.7804 26.36 60.7804 27.304V31H58.9084V27.592C58.9084 27.08 58.7964 26.7 58.5724 26.452C58.3484 26.196 58.0244 26.068 57.6004 26.068C57.1284 26.068 56.7524 26.216 56.4724 26.512C56.1924 26.8 56.0524 27.232 56.0524 27.808V31H54.1804V22.096H56.0524V25.216C56.3004 24.968 56.6004 24.78 56.9524 24.652C57.3044 24.516 57.6884 24.448 58.1044 24.448ZM68.8716 27.796C68.8716 27.82 68.8596 27.988 68.8356 28.3H63.9516C64.0396 28.7 64.2476 29.016 64.5756 29.248C64.9036 29.48 65.3116 29.596 65.7996 29.596C66.1356 29.596 66.4316 29.548 66.6876 29.452C66.9516 29.348 67.1956 29.188 67.4196 28.972L68.4156 30.052C67.8076 30.748 66.9196 31.096 65.7516 31.096C65.0236 31.096 64.3796 30.956 63.8196 30.676C63.2596 30.388 62.8276 29.992 62.5236 29.488C62.2196 28.984 62.0676 28.412 62.0676 27.772C62.0676 27.14 62.2156 26.572 62.5116 26.068C62.8156 25.556 63.2276 25.16 63.7476 24.88C64.2756 24.592 64.8636 24.448 65.5116 24.448C66.1436 24.448 66.7156 24.584 67.2276 24.856C67.7396 25.128 68.1396 25.52 68.4276 26.032C68.7236 26.536 68.8716 27.124 68.8716 27.796ZM65.5236 25.864C65.0996 25.864 64.7436 25.984 64.4556 26.224C64.1676 26.464 63.9916 26.792 63.9276 27.208H67.1076C67.0436 26.8 66.8676 26.476 66.5796 26.236C66.2916 25.988 65.9396 25.864 65.5236 25.864ZM71.9059 25.396C72.1299 25.084 72.4299 24.848 72.8059 24.688C73.1899 24.528 73.6299 24.448 74.1259 24.448V26.176C73.9179 26.16 73.7779 26.152 73.7059 26.152C73.1699 26.152 72.7499 26.304 72.4459 26.608C72.1419 26.904 71.9899 27.352 71.9899 27.952V31H70.1179V24.544H71.9059V25.396Z" fill="black"/>
<path d="M31.348 43L29.728 40.66H29.632H27.94V43H25.996V34.6H29.632C30.376 34.6 31.02 34.724 31.564 34.972C32.116 35.22 32.54 35.572 32.836 36.028C33.132 36.484 33.28 37.024 33.28 37.648C33.28 38.272 33.128 38.812 32.824 39.268C32.528 39.716 32.104 40.06 31.552 40.3L33.436 43H31.348ZM31.312 37.648C31.312 37.176 31.16 36.816 30.856 36.568C30.552 36.312 30.108 36.184 29.524 36.184H27.94V39.112H29.524C30.108 39.112 30.552 38.984 30.856 38.728C31.16 38.472 31.312 38.112 31.312 37.648ZM41.0122 39.796C41.0122 39.82 41.0002 39.988 40.9762 40.3H36.0922C36.1802 40.7 36.3882 41.016 36.7162 41.248C37.0442 41.48 37.4522 41.596 37.9402 41.596C38.2762 41.596 38.5722 41.548 38.8282 41.452C39.0922 41.348 39.3362 41.188 39.5602 40.972L40.5562 42.052C39.9482 42.748 39.0602 43.096 37.8922 43.096C37.1642 43.096 36.5202 42.956 35.9602 42.676C35.4002 42.388 34.9682 41.992 34.6642 41.488C34.3602 40.984 34.2082 40.412 34.2082 39.772C34.2082 39.14 34.3562 38.572 34.6522 38.068C34.9562 37.556 35.3682 37.16 35.8882 36.88C36.4162 36.592 37.0042 36.448 37.6522 36.448C38.2842 36.448 38.8562 36.584 39.3682 36.856C39.8802 37.128 40.2802 37.52 40.5682 38.032C40.8642 38.536 41.0122 39.124 41.0122 39.796ZM37.6642 37.864C37.2402 37.864 36.8842 37.984 36.5962 38.224C36.3082 38.464 36.1322 38.792 36.0682 39.208H39.2482C39.1842 38.8 39.0082 38.476 38.7202 38.236C38.4322 37.988 38.0802 37.864 37.6642 37.864ZM46.0745 36.448C46.6745 36.448 47.2185 36.588 47.7065 36.868C48.2025 37.14 48.5905 37.528 48.8705 38.032C49.1505 38.528 49.2905 39.108 49.2905 39.772C49.2905 40.436 49.1505 41.02 48.8705 41.524C48.5905 42.02 48.2025 42.408 47.7065 42.688C47.2185 42.96 46.6745 43.096 46.0745 43.096C45.2505 43.096 44.6025 42.836 44.1305 42.316V45.328H42.2585V36.544H44.0465V37.288C44.5105 36.728 45.1865 36.448 46.0745 36.448ZM45.7505 41.56C46.2305 41.56 46.6225 41.4 46.9265 41.08C47.2385 40.752 47.3945 40.316 47.3945 39.772C47.3945 39.228 47.2385 38.796 46.9265 38.476C46.6225 38.148 46.2305 37.984 45.7505 37.984C45.2705 37.984 44.8745 38.148 44.5625 38.476C44.2585 38.796 44.1065 39.228 44.1065 39.772C44.1065 40.316 44.2585 40.752 44.5625 41.08C44.8745 41.4 45.2705 41.56 45.7505 41.56ZM53.6157 43.096C52.9357 43.096 52.3237 42.956 51.7797 42.676C51.2437 42.388 50.8237 41.992 50.5197 41.488C50.2157 40.984 50.0637 40.412 50.0637 39.772C50.0637 39.132 50.2157 38.56 50.5197 38.056C50.8237 37.552 51.2437 37.16 51.7797 36.88C52.3237 36.592 52.9357 36.448 53.6157 36.448C54.2957 36.448 54.9037 36.592 55.4397 36.88C55.9757 37.16 56.3957 37.552 56.6997 38.056C57.0037 38.56 57.1557 39.132 57.1557 39.772C57.1557 40.412 57.0037 40.984 56.6997 41.488C56.3957 41.992 55.9757 42.388 55.4397 42.676C54.9037 42.956 54.2957 43.096 53.6157 43.096ZM53.6157 41.56C54.0957 41.56 54.4877 41.4 54.7917 41.08C55.1037 40.752 55.2597 40.316 55.2597 39.772C55.2597 39.228 55.1037 38.796 54.7917 38.476C54.4877 38.148 54.0957 37.984 53.6157 37.984C53.1357 37.984 52.7397 38.148 52.4277 38.476C52.1157 38.796 51.9597 39.228 51.9597 39.772C51.9597 40.316 52.1157 40.752 52.4277 41.08C52.7397 41.4 53.1357 41.56 53.6157 41.56ZM60.195 37.396C60.419 37.084 60.719 36.848 61.095 36.688C61.479 36.528 61.919 36.448 62.415 36.448V38.176C62.207 38.16 62.067 38.152 61.995 38.152C61.459 38.152 61.039 38.304 60.735 38.608C60.431 38.904 60.279 39.352 60.279 39.952V43H58.407V36.544H60.195V37.396ZM67.9147 42.688C67.7307 42.824 67.5027 42.928 67.2307 43C66.9667 43.064 66.6867 43.096 66.3907 43.096C65.6227 43.096 65.0267 42.9 64.6027 42.508C64.1867 42.116 63.9787 41.54 63.9787 40.78V38.128H62.9827V36.688H63.9787V35.116H65.8507V36.688H67.4587V38.128H65.8507V40.756C65.8507 41.028 65.9187 41.24 66.0547 41.392C66.1987 41.536 66.3987 41.608 66.6547 41.608C66.9507 41.608 67.2027 41.528 67.4107 41.368L67.9147 42.688Z" fill="black"/>
</svg>
