<svg width="1961" height="440" viewBox="0 0 1961 440" fill="none" xmlns="http://www.w3.org/2000/svg">
<rect width="1961" height="440" rx="100" fill="black"/>
<path d="M143.911 330C127.518 330 115.897 329.144 109.046 327.431C102.195 325.718 98.7699 324.006 98.7699 322.293L109.78 294.768C116.875 295.502 129.843 296.358 148.682 297.337C167.766 298.071 191.254 298.438 219.146 298.438H237.496C243.613 298.438 247.405 296.848 248.873 293.667C250.586 290.242 251.442 285.715 251.442 280.088C251.442 274.461 250.463 269.934 248.506 266.509C246.793 263.084 243.123 261.371 237.496 261.371H147.214C130.087 261.371 117.732 258.19 110.147 251.829C102.562 245.223 98.7699 235.436 98.7699 222.469V207.789C98.7699 204.364 99.1369 200.327 99.8709 195.678C100.605 191.029 102.44 186.381 105.376 181.732C108.312 177.083 113.083 173.291 119.689 170.355C126.295 167.174 135.47 165.584 147.214 165.584H248.506C263.186 165.584 273.584 166.44 279.701 168.153C285.818 169.866 288.876 171.578 288.876 173.291L285.206 200.816C278.111 200.082 265.021 199.348 245.937 198.614C226.853 197.635 203.487 197.146 175.84 197.146H157.49C151.373 197.146 147.459 198.859 145.746 202.284C144.278 205.465 143.544 209.257 143.544 213.661C143.544 218.31 144.278 222.224 145.746 225.405C147.459 228.341 151.373 229.809 157.49 229.809H247.772C264.409 229.809 276.643 233.234 284.472 240.085C292.301 246.936 296.216 255.621 296.216 266.142V287.795C296.216 292.199 295.849 296.848 295.115 301.741C294.626 306.634 292.913 311.283 289.977 315.687C287.041 319.846 282.27 323.272 275.664 325.963C269.058 328.654 259.761 330 247.772 330H143.911ZM400.332 330C381.737 330 369.015 326.085 362.164 318.256C355.313 310.427 351.888 298.683 351.888 283.024V197.146H321.794V165.584H337.208C341.857 165.584 345.16 164.85 347.117 163.382C349.319 161.914 350.909 158.978 351.888 154.574L359.228 115.305H396.662V165.584H472.998V197.146H396.662V283.391C396.662 289.508 398.13 293.545 401.066 295.502C404.002 297.459 408.406 298.438 414.278 298.438H466.025L469.695 326.33C464.557 327.064 456.728 327.92 446.207 328.899C435.686 329.633 424.187 330 411.709 330H400.332ZM547.187 330C530.794 330 518.561 326.697 510.487 320.091C502.657 313.485 498.743 302.72 498.743 287.795V212.56C498.743 208.89 498.987 204.486 499.477 199.348C500.211 193.965 501.923 188.705 504.615 183.567C507.551 178.429 512.322 174.147 518.928 170.722C525.778 167.297 535.198 165.584 547.187 165.584H648.479C660.712 165.584 670.132 167.297 676.738 170.722C683.344 174.147 687.992 178.429 690.684 183.567C693.62 188.705 695.332 193.965 695.822 199.348C696.556 204.486 696.923 208.89 696.923 212.56V283.024C696.923 287.428 696.556 292.321 695.822 297.704C695.332 303.087 693.62 308.225 690.684 313.118C687.748 318.011 682.977 322.048 676.371 325.229C669.765 328.41 660.467 330 648.479 330H547.187ZM561.133 298.438H634.533C646.521 298.438 652.516 293.545 652.516 283.758V211.826C652.516 202.039 646.521 197.146 634.533 197.146H561.133C549.389 197.146 543.517 202.039 543.517 211.826V283.758C543.517 293.545 549.389 298.438 561.133 298.438ZM737.164 330V165.584H767.258L781.204 172.924C787.565 169.499 794.416 166.807 801.756 164.85C809.096 162.893 818.393 161.914 829.648 161.914C847.508 161.914 861.944 163.871 872.954 167.786C884.208 171.701 891.671 174.637 895.341 176.594L882.496 208.523C879.56 207.055 874.666 205.22 867.816 203.018C861.21 200.571 853.38 198.369 844.328 196.412C835.275 194.455 825.366 193.476 814.601 193.476H810.564C798.82 193.476 791.113 195.8 787.443 200.449C784.017 205.098 782.182 212.805 781.938 223.57V330H737.164ZM921.022 330V165.584H951.116L960.291 169.988C967.386 168.765 976.072 167.786 986.348 167.052C996.624 166.073 1008.86 165.584 1023.05 165.584H1041.4C1048.49 165.584 1055.34 166.563 1061.95 168.52C1068.56 170.233 1073.45 172.802 1076.63 176.227C1082.99 173.046 1091.8 170.477 1103.05 168.52C1114.31 166.563 1128.99 165.584 1147.09 165.584H1165.44C1177.68 165.584 1187.1 167.297 1193.7 170.722C1200.31 174.147 1204.96 178.429 1207.65 183.567C1210.58 188.705 1212.3 193.965 1212.79 199.348C1213.52 204.486 1213.89 208.89 1213.89 212.56V330H1169.11V211.826C1169.11 202.039 1163.24 197.146 1151.5 197.146H1100.12C1096.2 197.146 1093.51 197.635 1092.04 198.614C1090.58 199.593 1089.84 201.795 1089.84 205.22V330H1045.07V211.826C1045.07 202.039 1039.2 197.146 1027.45 197.146H976.806C972.157 197.146 969.099 197.635 967.631 198.614C966.408 199.348 965.796 201.55 965.796 205.22V330H921.022ZM1300.9 330C1288.67 330 1279.25 328.41 1272.64 325.229C1266.03 322.048 1261.26 318.011 1258.33 313.118C1255.64 308.225 1253.92 303.087 1253.19 297.704C1252.7 292.321 1252.45 287.428 1252.45 283.024V212.56C1252.45 208.89 1252.7 204.486 1253.19 199.348C1253.92 193.965 1255.64 188.705 1258.33 183.567C1261.26 178.429 1266.03 174.147 1272.64 170.722C1279.49 167.297 1288.91 165.584 1300.9 165.584H1379.8C1395.95 165.584 1408.55 167.174 1417.6 170.355C1426.9 173.291 1433.39 178.184 1437.06 185.035C1440.97 191.886 1442.93 201.061 1442.93 212.56V266.876H1378.7C1356.68 266.876 1338.7 266.387 1324.75 265.408C1311.05 264.429 1301.88 263.818 1297.23 263.573V283.758C1296.98 293.545 1302.86 298.438 1314.84 298.438H1333.56C1346.77 298.438 1359.62 298.316 1372.1 298.071C1384.82 297.582 1396.44 297.092 1406.96 296.603C1417.48 295.869 1425.92 295.257 1432.28 294.768L1446.96 318.623C1446.96 326.208 1422.86 330 1374.67 330H1300.9ZM1297.23 235.314H1398.15V211.826C1398.15 206.933 1397.54 203.507 1396.32 201.55C1395.34 199.593 1392.16 198.369 1386.78 197.88C1381.39 197.391 1372.22 197.146 1359.25 197.146H1314.84C1303.1 197.146 1297.23 202.039 1297.23 211.826V235.314ZM1483.71 330V165.584H1513.8L1527.75 172.924C1534.11 169.499 1540.96 166.807 1548.3 164.85C1555.64 162.893 1564.94 161.914 1576.19 161.914C1594.05 161.914 1608.49 163.871 1619.5 167.786C1630.75 171.701 1638.21 174.637 1641.88 176.594L1629.04 208.523C1626.1 207.055 1621.21 205.22 1614.36 203.018C1607.75 200.571 1599.92 198.369 1590.87 196.412C1581.82 194.455 1571.91 193.476 1561.14 193.476H1557.11C1545.36 193.476 1537.66 195.8 1533.99 200.449C1530.56 205.098 1528.73 212.805 1528.48 223.57V330H1483.71ZM1709.04 330C1692.64 330 1681.02 329.144 1674.17 327.431C1667.32 325.718 1663.9 324.006 1663.9 322.293L1674.91 294.768C1682 295.502 1694.97 296.358 1713.81 297.337C1732.89 298.071 1756.38 298.438 1784.27 298.438H1802.62C1808.74 298.438 1812.53 296.848 1814 293.667C1815.71 290.242 1816.57 285.715 1816.57 280.088C1816.57 274.461 1815.59 269.934 1813.63 266.509C1811.92 263.084 1808.25 261.371 1802.62 261.371H1712.34C1695.21 261.371 1682.86 258.19 1675.27 251.829C1667.69 245.223 1663.9 235.436 1663.9 222.469V207.789C1663.9 204.364 1664.26 200.327 1665 195.678C1665.73 191.029 1667.57 186.381 1670.5 181.732C1673.44 177.083 1678.21 173.291 1684.81 170.355C1691.42 167.174 1700.6 165.584 1712.34 165.584H1813.63C1828.31 165.584 1838.71 166.44 1844.83 168.153C1850.94 169.866 1854 171.578 1854 173.291L1850.33 200.816C1843.24 200.082 1830.15 199.348 1811.06 198.614C1791.98 197.635 1768.61 197.146 1740.97 197.146H1722.62C1716.5 197.146 1712.58 198.859 1710.87 202.284C1709.4 205.465 1708.67 209.257 1708.67 213.661C1708.67 218.31 1709.4 222.224 1710.87 225.405C1712.58 228.341 1716.5 229.809 1722.62 229.809H1812.9C1829.54 229.809 1841.77 233.234 1849.6 240.085C1857.43 246.936 1861.34 255.621 1861.34 266.142V287.795C1861.34 292.199 1860.97 296.848 1860.24 301.741C1859.75 306.634 1858.04 311.283 1855.1 315.687C1852.17 319.846 1847.4 323.272 1840.79 325.963C1834.18 328.654 1824.89 330 1812.9 330H1709.04Z" fill="#FFFDFD"/>
</svg>
