<svg width="3528" height="1088" viewBox="0 0 3528 1088" fill="none" xmlns="http://www.w3.org/2000/svg">
<path d="M1017.29 791.644C945.143 833.089 806.29 507.404 710.658 507.404C615.026 507.404 639.923 720.841 543.558 791.644C437.443 869.609 14.0088 909.384 26.2605 992.994C38.5123 1076.6 3446.55 992.994 3496.57 958.79C3546.6 924.585 3290 607.68 3227.72 601.249C3165.44 594.817 2994.93 919.323 2862.21 860.854C2773.98 821.989 2710.08 774.319 2540.94 705.909C2501.08 645.19 2540.94 483.432 2501.46 507.404C2501.46 507.404 1360.68 520.558 1251.78 507.404C1142.87 494.249 1107.01 775.534 1017.29 791.644Z" stroke="#FFFDFD" stroke-width="50"/>
<path d="M1131.83 907V728.533H1263.63C1282.62 728.533 1296.46 732.371 1305.14 740.047C1313.83 747.521 1318.17 756.611 1318.17 767.317V776.407C1318.17 784.689 1316.35 791.557 1312.72 797.011C1309.28 802.263 1305.55 806 1301.51 808.222C1310.39 811.05 1317.46 815.999 1322.72 823.069C1327.97 829.937 1330.59 839.027 1330.59 850.339V855.793C1330.59 861.853 1329.89 867.913 1328.47 873.973C1327.06 880.033 1324.33 885.588 1320.29 890.638C1316.45 895.486 1310.9 899.425 1303.63 902.455C1296.56 905.485 1287.26 907 1275.75 907H1131.83ZM1171.82 800.041H1257.27C1264.34 800.243 1269.59 798.526 1273.02 794.89C1276.46 791.052 1278.17 786.305 1278.17 780.649V777.619C1278.17 772.973 1276.56 768.529 1273.33 764.287C1270.09 759.843 1264.03 757.621 1255.15 757.621H1171.82V800.041ZM1171.82 877.912H1267.27C1274.94 877.912 1280.7 875.993 1284.54 872.155C1288.58 868.317 1290.6 863.065 1290.6 856.399V850.945C1290.6 844.683 1288.27 839.633 1283.63 835.795C1278.98 831.755 1271.31 829.735 1260.6 829.735H1171.82V877.912ZM1403.89 907C1393.79 907 1386.01 905.687 1380.56 903.061C1375.1 900.435 1371.16 897.102 1368.74 893.062C1366.52 889.022 1365.1 884.78 1364.5 880.336C1364.09 875.892 1363.89 871.852 1363.89 868.216V810.04C1363.89 807.01 1364.09 803.374 1364.5 799.132C1365.1 794.688 1366.52 790.345 1368.74 786.103C1371.16 781.861 1375.1 778.326 1380.56 775.498C1386.21 772.67 1393.99 771.256 1403.89 771.256H1469.03C1482.37 771.256 1492.77 772.569 1500.24 775.195C1507.92 777.619 1513.27 781.659 1516.3 787.315C1519.53 792.971 1521.15 800.546 1521.15 810.04V854.884H1468.12C1449.94 854.884 1435.1 854.48 1423.58 853.672C1412.27 852.864 1404.7 852.359 1400.86 852.157V868.822C1400.66 876.902 1405.5 880.942 1415.4 880.942H1430.86C1441.76 880.942 1452.37 880.841 1462.67 880.639C1473.17 880.235 1482.77 879.831 1491.46 879.427C1500.14 878.821 1507.11 878.316 1512.36 877.912L1524.48 897.607C1524.48 903.869 1504.59 907 1464.79 907H1403.89ZM1400.86 828.826H1484.18V809.434C1484.18 805.394 1483.68 802.566 1482.67 800.95C1481.86 799.334 1479.23 798.324 1474.79 797.92C1470.35 797.516 1462.77 797.314 1452.07 797.314H1415.4C1405.71 797.314 1400.86 801.354 1400.86 809.434V828.826ZM1589.06 907C1575.52 907 1565.93 906.293 1560.27 904.879C1554.62 903.465 1551.79 902.051 1551.79 900.637L1560.88 877.912C1566.74 878.518 1577.44 879.225 1593 880.033C1608.75 880.639 1628.14 880.942 1651.17 880.942H1666.32C1671.37 880.942 1674.5 879.629 1675.72 877.003C1677.13 874.175 1677.84 870.438 1677.84 865.792C1677.84 861.146 1677.03 857.409 1675.41 854.581C1674 851.753 1670.97 850.339 1666.32 850.339H1591.78C1577.64 850.339 1567.44 847.713 1561.18 842.461C1554.92 837.007 1551.79 828.927 1551.79 818.221V806.101C1551.79 803.273 1552.09 799.94 1552.7 796.102C1553.3 792.264 1554.82 788.426 1557.24 784.588C1559.67 780.75 1563.61 777.619 1569.06 775.195C1574.51 772.569 1582.09 771.256 1591.78 771.256H1675.41C1687.53 771.256 1696.12 771.963 1701.17 773.377C1706.22 774.791 1708.74 776.205 1708.74 777.619L1705.71 800.344C1699.85 799.738 1689.05 799.132 1673.29 798.526C1657.54 797.718 1638.24 797.314 1615.42 797.314H1600.27C1595.22 797.314 1591.99 798.728 1590.57 801.556C1589.36 804.182 1588.75 807.313 1588.75 810.949C1588.75 814.787 1589.36 818.019 1590.57 820.645C1591.99 823.069 1595.22 824.281 1600.27 824.281H1674.81C1688.54 824.281 1698.64 827.109 1705.11 832.765C1711.57 838.421 1714.8 845.592 1714.8 854.278V872.155C1714.8 875.791 1714.5 879.629 1713.89 883.669C1713.49 887.709 1712.08 891.547 1709.65 895.183C1707.23 898.617 1703.29 901.445 1697.83 903.667C1692.38 905.889 1684.7 907 1674.81 907H1589.06ZM1800.76 907C1785.41 907 1774.91 903.768 1769.25 897.304C1763.59 890.84 1760.77 881.144 1760.77 868.216V797.314H1735.92V771.256H1748.65C1752.48 771.256 1755.21 770.65 1756.83 769.438C1758.64 768.226 1759.96 765.802 1760.77 762.166L1766.83 729.745H1797.73V771.256H1860.76V797.314H1797.73V868.519C1797.73 873.569 1798.94 876.902 1801.37 878.518C1803.79 880.134 1807.43 880.942 1812.28 880.942H1855L1858.03 903.97C1853.79 904.576 1847.32 905.283 1838.64 906.091C1829.95 906.697 1820.46 907 1810.15 907H1800.76ZM1957.68 907V728.533H2089.48C2108.47 728.533 2122.31 732.371 2130.99 740.047C2139.68 747.521 2144.02 756.611 2144.02 767.317V776.407C2144.02 784.689 2142.21 791.557 2138.57 797.011C2135.13 802.263 2131.4 806 2127.36 808.222C2136.25 811.05 2143.32 815.999 2148.57 823.069C2153.82 829.937 2156.45 839.027 2156.45 850.339V855.793C2156.45 861.853 2155.74 867.913 2154.32 873.973C2152.91 880.033 2150.18 885.588 2146.14 890.638C2142.31 895.486 2136.75 899.425 2129.48 902.455C2122.41 905.485 2113.12 907 2101.6 907H1957.68ZM1997.67 800.041H2083.12C2090.19 800.243 2095.44 798.526 2098.88 794.89C2102.31 791.052 2104.03 786.305 2104.03 780.649V777.619C2104.03 772.973 2102.41 768.529 2099.18 764.287C2095.95 759.843 2089.89 757.621 2081 757.621H1997.67V800.041ZM1997.67 877.912H2093.12C2100.79 877.912 2106.55 875.993 2110.39 872.155C2114.43 868.317 2116.45 863.065 2116.45 856.399V850.945C2116.45 844.683 2114.13 839.633 2109.48 835.795C2104.83 831.755 2097.16 829.735 2086.45 829.735H1997.67V877.912ZM2214.29 752.167C2206.81 752.167 2201.36 750.652 2197.93 747.622C2194.49 744.592 2192.78 739.542 2192.78 732.472C2192.78 725.2 2194.39 720.15 2197.62 717.322C2201.06 714.292 2206.61 712.777 2214.29 712.777C2221.96 712.777 2227.52 714.292 2230.95 717.322C2234.39 720.15 2236.1 725.2 2236.1 732.472C2236.1 739.34 2234.39 744.39 2230.95 747.622C2227.52 750.652 2221.96 752.167 2214.29 752.167ZM2195.81 907V771.256H2232.77V907H2195.81ZM2325.09 907C2309.74 907 2299.24 903.768 2293.58 897.304C2287.93 890.84 2285.1 881.144 2285.1 868.216V797.314H2260.25V771.256H2272.98C2276.82 771.256 2279.54 770.65 2281.16 769.438C2282.98 768.226 2284.29 765.802 2285.1 762.166L2291.16 729.745H2322.06V771.256H2385.09V797.314H2322.06V868.519C2322.06 873.569 2323.28 876.902 2325.7 878.518C2328.12 880.134 2331.76 880.942 2336.61 880.942H2379.33L2382.36 903.97C2378.12 904.576 2371.65 905.283 2362.97 906.091C2354.28 906.697 2344.79 907 2334.49 907H2325.09ZM2443.61 907C2430.08 907 2420.48 906.293 2414.83 904.879C2409.17 903.465 2406.34 902.051 2406.34 900.637L2415.43 877.912C2421.29 878.518 2432 879.225 2447.55 880.033C2463.31 880.639 2482.7 880.942 2505.73 880.942H2520.88C2525.93 880.942 2529.06 879.629 2530.27 877.003C2531.68 874.175 2532.39 870.438 2532.39 865.792C2532.39 861.146 2531.58 857.409 2529.97 854.581C2528.55 851.753 2525.52 850.339 2520.88 850.339H2446.34C2432.2 850.339 2422 847.713 2415.74 842.461C2409.47 837.007 2406.34 828.927 2406.34 818.221V806.101C2406.34 803.273 2406.65 799.94 2407.25 796.102C2407.86 792.264 2409.37 788.426 2411.8 784.588C2414.22 780.75 2418.16 777.619 2423.61 775.195C2429.07 772.569 2436.64 771.256 2446.34 771.256H2529.97C2542.09 771.256 2550.67 771.963 2555.72 773.377C2560.77 774.791 2563.3 776.205 2563.3 777.619L2560.27 800.344C2554.41 799.738 2543.6 799.132 2527.85 798.526C2512.09 797.718 2492.8 797.314 2469.97 797.314H2454.82C2449.77 797.314 2446.54 798.728 2445.13 801.556C2443.91 804.182 2443.31 807.313 2443.31 810.949C2443.31 814.787 2443.91 818.019 2445.13 820.645C2446.54 823.069 2449.77 824.281 2454.82 824.281H2529.36C2543.1 824.281 2553.2 827.109 2559.66 832.765C2566.12 838.421 2569.36 845.592 2569.36 854.278V872.155C2569.36 875.791 2569.05 879.629 2568.45 883.669C2568.04 887.709 2566.63 891.547 2564.21 895.183C2561.78 898.617 2557.84 901.445 2552.39 903.667C2546.93 905.889 2539.26 907 2529.36 907H2443.61Z" fill="#FFFCFC"/>
<path d="M483.157 420C461.053 420 443.774 416.887 431.32 410.66C418.867 404.433 410.15 395.093 405.168 382.64C400.187 370.187 397.696 354.776 397.696 336.407V232.266C397.696 202.378 404.39 180.429 417.777 166.419C431.165 152.098 452.958 144.937 483.157 144.937H623.724C645.206 144.937 661.551 146.182 672.759 148.673C684.279 150.852 690.038 153.187 690.038 155.678L680.698 194.439C675.406 193.505 659.683 192.571 633.531 191.637C607.691 190.392 570.019 189.769 520.517 189.769H496.7C471.794 189.769 459.34 200.821 459.34 222.926V342.011C459.34 352.596 461.987 360.847 467.279 366.762C472.883 372.366 482.69 375.168 496.7 375.168H515.847C567.529 375.168 607.535 374.701 635.866 373.767C664.509 372.522 682.255 371.276 689.104 370.031L708.251 400.853C708.251 402.41 705.605 404.745 700.312 407.858C695.331 410.971 685.991 413.773 672.292 416.264C658.594 418.755 638.824 420 612.983 420H483.157ZM805.8 420C782.138 420 765.015 414.552 754.43 403.655C743.844 392.447 738.552 377.192 738.552 357.889C738.552 337.652 744 322.086 754.897 311.189C766.105 300.292 783.072 294.844 805.8 294.844H829.617C852.967 294.844 873.982 295.467 892.662 296.712C911.342 297.957 926.753 299.203 938.895 300.448V269.626C938.895 266.824 938.583 264.022 937.961 261.22C937.338 258.107 935.47 255.616 932.357 253.748C929.243 251.88 923.951 250.946 916.479 250.946H893.129C859.193 250.946 830.862 251.569 808.135 252.814C785.407 253.748 769.996 254.682 761.902 255.616L756.765 220.124C756.765 215.765 768.595 213.119 792.257 212.185C815.918 211.251 855.457 210.784 910.875 210.784H934.225C949.791 210.784 961.778 212.963 970.184 217.322C978.59 221.681 984.505 227.129 987.93 233.667C991.666 240.205 993.845 246.899 994.468 253.748C995.402 260.286 995.869 265.89 995.869 270.56V420H957.575L939.362 410.66C926.286 412.839 910.563 415.019 892.195 417.198C873.826 419.066 852.811 420 829.15 420H805.8ZM817.942 379.838H924.885C931.734 379.838 935.781 379.215 937.027 377.97C938.272 376.725 938.895 372.833 938.895 366.295V330.336H817.942C809.536 330.336 803.62 332.36 800.196 336.407C797.082 340.454 795.526 346.837 795.526 355.554C795.526 364.271 797.394 370.498 801.13 374.234C804.866 377.97 810.47 379.838 817.942 379.838ZM1049.75 506.862V210.784H1088.04L1099.71 216.855C1113.72 215.298 1130.38 213.897 1149.68 212.652C1169.3 211.407 1191.56 210.784 1216.46 210.784H1240.28C1255.85 210.784 1267.83 212.808 1276.24 216.855C1284.65 220.902 1290.56 226.039 1293.99 232.266C1297.72 238.493 1299.9 245.031 1300.52 251.88C1301.46 258.729 1301.93 264.956 1301.93 270.56V360.224C1301.93 364.894 1301.46 370.654 1300.52 377.503C1299.9 384.041 1297.72 390.579 1293.99 397.117C1290.56 403.655 1284.65 409.103 1276.24 413.462C1267.83 417.821 1255.85 420 1240.28 420H1216.46C1192.8 420 1171.79 419.377 1153.42 418.132C1135.05 416.887 1119.48 415.641 1106.72 414.396V506.862H1049.75ZM1121.2 379.838H1222.54C1228.45 379.838 1233.59 378.281 1237.95 375.168C1242.62 372.055 1244.95 367.385 1244.95 361.158V269.626C1245.26 262.777 1243.55 257.951 1239.81 255.149C1236.39 252.347 1230.63 250.946 1222.54 250.946H1199.19C1179.26 250.946 1161.51 251.413 1145.95 252.347C1130.69 252.97 1117.62 253.748 1106.72 254.682V365.361C1106.72 372.21 1107.34 376.413 1108.59 377.97C1110.14 379.215 1114.35 379.838 1121.2 379.838ZM1410.45 420C1394.88 420 1382.9 417.976 1374.49 413.929C1366.09 409.882 1360.02 404.745 1356.28 398.518C1352.85 392.291 1350.68 385.753 1349.74 378.904C1349.12 372.055 1348.81 365.828 1348.81 360.224V270.56C1348.81 265.89 1349.12 260.286 1349.74 253.748C1350.68 246.899 1352.85 240.205 1356.28 233.667C1360.02 227.129 1366.09 221.681 1374.49 217.322C1383.21 212.963 1395.2 210.784 1410.45 210.784H1510.86C1531.4 210.784 1547.44 212.808 1558.96 216.855C1570.79 220.591 1579.04 226.818 1583.71 235.535C1588.69 244.252 1591.18 255.927 1591.18 270.56V339.676H1509.46C1481.44 339.676 1458.55 339.053 1440.81 337.808C1423.37 336.563 1411.7 335.784 1405.78 335.473V361.158C1405.47 373.611 1412.94 379.838 1428.2 379.838H1452.01C1468.83 379.838 1485.17 379.682 1501.05 379.371C1517.24 378.748 1532.03 378.126 1545.41 377.503C1558.8 376.569 1569.54 375.791 1577.64 375.168L1596.32 405.523C1596.32 415.174 1565.65 420 1504.32 420H1410.45ZM1405.78 299.514H1534.21V269.626C1534.21 263.399 1533.43 259.041 1531.87 256.55C1530.63 254.059 1526.58 252.503 1519.73 251.88C1512.88 251.257 1501.21 250.946 1484.7 250.946H1428.2C1413.25 250.946 1405.78 257.173 1405.78 269.626V299.514ZM1848.89 420L1848.42 189.769H1727V144.937H2032.42V189.769H1910.54V420H1848.89ZM2108.22 420C2087.36 420 2071.79 415.797 2061.52 407.391C2051.55 398.985 2046.57 385.286 2046.57 366.295V270.56C2046.57 265.89 2046.88 260.286 2047.51 253.748C2048.44 246.899 2050.62 240.205 2054.04 233.667C2057.78 227.129 2063.85 221.681 2072.26 217.322C2080.97 212.963 2092.96 210.784 2108.22 210.784H2237.11C2252.67 210.784 2264.66 212.963 2273.07 217.322C2281.47 221.681 2287.39 227.129 2290.81 233.667C2294.55 240.205 2296.73 246.899 2297.35 253.748C2298.28 260.286 2298.75 265.89 2298.75 270.56V360.224C2298.75 365.828 2298.28 372.055 2297.35 378.904C2296.73 385.753 2294.55 392.291 2290.81 398.518C2287.08 404.745 2281.01 409.882 2272.6 413.929C2264.19 417.976 2252.36 420 2237.11 420H2108.22ZM2125.96 379.838H2219.36C2234.62 379.838 2242.24 373.611 2242.24 361.158V269.626C2242.24 257.173 2234.62 250.946 2219.36 250.946H2125.96C2111.02 250.946 2103.55 257.173 2103.55 269.626V361.158C2103.55 373.611 2111.02 379.838 2125.96 379.838ZM2401.79 420L2326.61 210.784H2391.99L2429.81 329.402L2441.96 370.965H2446.63L2453.63 334.072L2485.85 210.784H2560.57L2594.67 334.072L2601.2 370.965H2605.87L2618.48 328.468L2653.97 210.784H2719.35L2711.88 239.271L2644.63 420H2569.91L2531.15 291.575L2526.48 269.626H2521.81L2516.21 291.575L2476.51 420H2401.79ZM2752.2 420V210.784H2790.49L2809.17 220.124C2822.25 217.633 2837.97 215.454 2856.34 213.586C2874.71 211.718 2895.72 210.784 2919.38 210.784H2942.73C2958.3 210.784 2970.29 212.963 2978.69 217.322C2987.1 221.681 2993.01 227.129 2996.44 233.667C3000.17 240.205 3002.35 246.899 3002.98 253.748C3003.91 260.286 3004.38 265.89 3004.38 270.56V420H2947.4V269.626C2947.4 257.173 2939.93 250.946 2924.99 250.946H2823.18C2817.27 250.946 2813.37 251.569 2811.51 252.814C2809.95 253.748 2809.17 256.55 2809.17 261.22V420H2752.2ZM3110.98 420C3090.12 420 3075.33 418.91 3066.62 416.731C3057.9 414.552 3053.54 412.372 3053.54 410.193L3067.55 375.168C3076.58 376.102 3093.08 377.192 3117.05 378.437C3141.34 379.371 3171.22 379.838 3206.72 379.838H3230.07C3237.85 379.838 3242.67 377.814 3244.54 373.767C3246.72 369.408 3247.81 363.649 3247.81 356.488C3247.81 349.327 3246.57 343.568 3244.08 339.209C3241.9 334.85 3237.23 332.671 3230.07 332.671H3115.18C3093.39 332.671 3077.67 328.624 3068.02 320.529C3058.37 312.123 3053.54 299.67 3053.54 283.169V264.489C3053.54 260.13 3054.01 254.993 3054.94 249.078C3055.87 243.163 3058.21 237.247 3061.95 231.332C3065.68 225.417 3071.75 220.591 3080.16 216.855C3088.56 212.808 3100.24 210.784 3115.18 210.784H3244.08C3262.76 210.784 3275.99 211.874 3283.77 214.053C3291.55 216.232 3295.45 218.412 3295.45 220.591L3290.78 255.616C3281.75 254.682 3265.09 253.748 3240.81 252.814C3216.52 251.569 3186.79 250.946 3151.61 250.946H3128.26C3120.48 250.946 3115.5 253.125 3113.32 257.484C3111.45 261.531 3110.51 266.357 3110.51 271.961C3110.51 277.876 3111.45 282.858 3113.32 286.905C3115.5 290.641 3120.48 292.509 3128.26 292.509H3243.14C3264.31 292.509 3279.88 296.868 3289.84 305.585C3299.8 314.302 3304.79 325.355 3304.79 338.742V366.295C3304.79 371.899 3304.32 377.814 3303.38 384.041C3302.76 390.268 3300.58 396.183 3296.85 401.787C3293.11 407.08 3287.04 411.438 3278.63 414.863C3270.23 418.288 3258.4 420 3243.14 420H3110.98Z" fill="#FFFCFC"/>
</svg>
