<svg width="1194" height="1262" viewBox="0 0 1194 1262" fill="none" xmlns="http://www.w3.org/2000/svg">
<path d="M636.646 259.428C637.25 260.411 637.902 261.906 638.437 263.192C639.056 264.68 639.728 266.415 640.339 268.044C642.501 273.807 644.492 276.932 646.427 278.616C647.388 279.452 648.466 280.046 649.853 280.366C649.334 279.295 648.681 277.768 648.646 276.144C648.621 274.956 648.908 273.785 649.538 272.721C650 271.939 650.562 271.364 651.013 270.966C651.028 270.937 651.044 270.904 651.062 270.865C651.138 270.703 651.216 270.504 651.287 270.284C651.358 270.065 651.41 269.856 651.443 269.679L651.459 269.597L651.477 269.515C652.012 267.105 653.484 264.403 656.043 262.935C656.046 262.689 656.046 262.402 656.042 262.066C656.028 260.807 655.963 259.129 655.862 256.817L655.862 256.811C655.564 249.755 654.968 247.269 653.946 245.353L653.915 245.295L653.886 245.236C653.14 243.746 652.029 240.624 650.895 237.173C649.71 233.567 648.364 229.174 647.146 224.859C643.404 211.609 642.558 207.287 642.558 198.8C642.558 195.918 642.688 193.303 642.913 191.264C643.024 190.257 643.169 189.288 643.363 188.456C643.459 188.045 643.59 187.562 643.778 187.079C643.914 186.728 644.291 185.796 645.122 184.964C645.353 184.734 645.777 184.326 646.379 183.945C646.351 183.81 646.324 183.677 646.297 183.546C645.851 181.381 645.511 179.732 645.223 178.441C645.131 178.029 645.049 177.676 644.976 177.373C644.285 177.245 643.467 176.992 642.686 176.498C640.689 175.233 640.033 173.239 639.755 172.116C639.458 170.918 639.298 169.434 639.17 167.784C639.036 166.065 638.914 163.826 638.765 160.972C637.686 141.953 635.848 129.747 626.65 82.4548C624.711 72.4908 623.109 63.9424 621.767 56.3637C621.314 56.8442 620.66 57.3564 619.755 57.6762C617.059 58.6291 615.052 57.0906 614.364 56.3617C614.278 56.2702 614.197 56.1782 614.122 56.087C613.942 64.5347 613.614 73.9329 613.252 81.2458C610.96 128.177 612.066 189.997 615.628 222.455L615.629 222.464L615.63 222.474C616.269 228.515 617.556 237.905 618.752 245.829C619.349 249.785 619.917 253.336 620.364 255.888C620.444 256.344 620.519 256.762 620.588 257.14C621.274 257.375 622.051 257.643 622.863 257.923C623.09 258.001 623.319 258.081 623.55 258.16L625.762 258.884C626.093 258.466 626.457 258.023 626.81 257.652C626.819 257.643 626.829 257.633 626.84 257.621C627.154 257.288 628.435 255.93 630.48 255.666C633.327 255.299 635.041 257.161 635.523 257.742C636.012 258.329 636.424 259.043 636.646 259.428ZM636.646 259.428C636.623 259.39 636.599 259.352 636.576 259.316L632.358 262M636.646 259.428C636.646 259.428 636.647 259.429 636.647 259.429C636.66 259.452 636.673 259.474 636.685 259.495L632.358 262M632.358 262C632.685 262.514 633.164 263.551 633.705 264.837L629.358 262.4C631.158 260.1 631.258 260.1 632.358 262ZM634.052 264.548C634.051 264.55 634.049 264.551 634.047 264.553C634.057 264.543 634.059 264.54 634.052 264.548ZM655.97 264.196C655.97 264.196 655.971 264.194 655.972 264.189C655.971 264.194 655.97 264.196 655.97 264.196ZM657.631 262.235C657.671 262.219 657.688 262.211 657.687 262.211C657.686 262.211 657.666 262.219 657.631 262.235ZM644.505 175.727C644.505 175.727 644.506 175.73 644.508 175.734C644.506 175.729 644.505 175.727 644.505 175.727Z" fill="#0BCAF3" stroke="#FFFAFA" stroke-width="10"/>
<path d="M822.764 158.078C829.981 133.752 835.106 116.713 838.984 104.175C830.797 117.947 821.815 136.043 807.499 167.094L807.498 167.096C792.524 199.538 791.868 201.04 782.82 224.308C774.839 244.959 770.227 258.532 767.503 269.234L767.5 269.248L767.496 269.262C766.692 272.343 765.649 279.084 764.911 285.382C764.77 286.594 764.641 287.77 764.53 288.878C766.479 287.43 768.819 285.566 771.536 283.277L771.544 283.27C778.85 277.139 781.953 274.424 784.227 271.212C786.506 267.991 788.058 264.122 791.482 255.129C798.916 235.403 810.374 200.047 822.763 158.084L822.764 158.078Z" fill="#F80707" stroke="#FFFAFA" stroke-width="10"/>
<path d="M421.218 194.483C413.275 180.626 404.633 164.393 396.685 148.581C397.861 152.93 398.931 156.959 399.83 160.438C400.781 164.117 401.551 167.224 402.055 169.459C402.304 170.563 402.506 171.532 402.629 172.277C402.688 172.63 402.752 173.065 402.779 173.491C402.791 173.684 402.808 174.062 402.763 174.507C402.741 174.727 402.689 175.125 402.537 175.595C402.429 175.933 402.151 176.694 401.477 177.442C401.691 178.071 401.908 178.706 402.126 179.344C406.662 192.602 411.945 207.403 414.691 214.22C426.816 243.891 439.425 264.543 456.733 283.31L456.738 283.316L456.744 283.321C460.187 287.078 461.646 288.533 462.597 289.193C462.898 289.402 463.004 289.424 463.03 289.429C463.032 289.43 463.033 289.43 463.035 289.43C463.148 289.457 463.415 289.5 464.258 289.5C468.593 289.5 471.384 287.621 472.566 285.204L472.595 285.145L472.625 285.087C473.515 283.381 473.867 282.076 473.883 280.389C473.901 278.487 473.495 275.921 472.421 271.667C472.291 271.19 472.173 270.759 472.065 270.369C471.414 270.332 470.721 270.191 469.996 269.898C468.889 269.45 468.061 268.772 467.497 268.238C466.92 267.693 466.379 267.067 465.888 266.466L465.875 266.45L465.862 266.434C464.721 265.016 461.959 260.811 458.526 255.443C454.997 249.924 450.541 242.821 445.883 235.31C436.581 220.305 426.415 203.566 421.218 194.483ZM476.452 269.113C476.453 269.113 476.449 269.115 476.441 269.12C476.448 269.116 476.452 269.113 476.452 269.113Z" fill="#0BCAF3" stroke="#FFFAFA" stroke-width="10"/>
<path d="M1063.15 225.73L1063.16 225.723C1066.59 224.311 1068.23 223.743 1069.68 223.486C1071.06 223.242 1072.51 223.238 1075.67 223.485L1075.68 223.486L1075.7 223.487C1076.07 223.513 1076.41 223.541 1076.73 223.571C1076.08 224.1 1075.36 224.674 1074.59 225.289C1070.33 228.682 1064.47 233.231 1058.04 238.115C978.771 297.941 940.291 335.886 910.307 384.468C907.677 388.695 906.426 390.54 905.488 391.54C904.949 392.114 904.668 392.307 903.399 392.688C901.881 393.097 898.816 394.224 895.377 395.545C891.726 396.947 887.294 398.71 882.974 400.469L1063.15 225.73ZM1063.15 225.73L1063.13 225.736M1063.15 225.73L1063.13 225.736M1063.13 225.736C1035.14 237.048 1008.01 254.864 968.278 288.325L968.275 288.328M1063.13 225.736L968.275 288.328M968.275 288.328C941.326 310.976 922.486 326.635 909.4 337.137C896.481 347.504 888.784 353.17 884.339 355.449L884.317 355.461M968.275 288.328L884.317 355.461M884.317 355.461L884.294 355.472M884.317 355.461L884.294 355.472M884.294 355.472C883.1 356.069 881.075 356.705 879.129 357.244C877.027 357.825 874.504 358.43 872.019 358.907C866.284 360.054 863.101 360.915 860.833 361.949C858.779 362.886 857.301 364.046 855.234 366.288L855.22 366.304L855.205 366.32C853.567 368.067 851.949 369.547 850.099 370.654C848.189 371.796 846.273 372.398 844.2 372.729C844.001 372.767 843.771 372.827 843.516 372.908M884.294 355.472L843.516 372.908M843.516 372.908C843.677 373.043 843.836 373.188 843.994 373.341C844.937 374.258 845.655 375.344 846.261 376.376C846.877 377.426 847.549 378.726 848.315 380.235L848.322 380.249L848.33 380.264C849.331 382.267 850.237 384.198 850.773 385.995C851.333 387.868 851.626 390.02 850.949 392.291C850.285 394.519 848.887 396.18 847.449 397.489C846.275 398.558 844.823 399.614 843.216 400.702C843.466 401.165 843.673 401.635 843.847 402.095C844.676 404.29 845.055 407.151 845.269 410.5H846.558C854.411 410.5 865.332 407.645 882.973 400.469L843.516 372.908Z" fill="#0BCAF3" stroke="#FFFAFA" stroke-width="10"/>
<path d="M238.953 354.835C238.62 355.444 238.103 356.092 237.352 356.606C237.683 357.073 237.973 357.52 238.21 357.94L238.214 357.947L238.218 357.954L240.518 362.054L244.695 369.5H236.749C248.968 383.429 261.242 396.713 269.989 405.46C287.155 422.527 297.945 430.761 312.433 438.248C316.772 440.44 322.223 442.732 326.694 444.347C328.031 444.83 329.242 445.238 330.281 445.56C330.604 444.413 330.962 443.102 331.321 441.733L331.321 441.731C332.905 435.695 332.702 434.657 332.432 433.834C330.963 429.744 330.51 425.181 333.089 421.288C335.564 417.553 339.895 415.905 344.298 415.174C345.969 414.864 349.01 413.87 350.922 413.023C351.43 412.741 351.788 412.526 352.045 412.355C352.03 412.22 352.006 412.16 351.999 412.145L351.999 412.144C351.99 412.124 351.947 412.02 351.74 411.825C351.218 411.333 349.991 410.564 347.263 409.639C344.915 408.855 342.848 407.878 341.177 406.762C339.633 405.731 337.917 404.242 337.017 402.225C336.532 401.138 336.192 399.674 336.552 398.048C336.924 396.368 337.914 395.104 339.033 394.269C340.197 393.4 341.553 392.941 342.886 392.71C342.851 392.662 342.818 392.615 342.784 392.57C342.502 392.187 342.298 391.971 342.175 391.856C342.136 391.862 342.09 391.87 342.037 391.882C341.012 392.112 339.55 392.342 337.974 392.01C336.154 391.627 334.714 390.62 333.673 389.282C332.759 388.107 332.203 386.743 331.807 385.54C331.507 384.629 331.233 383.599 330.968 382.472L324.584 382.889L324.579 382.89C319.957 383.188 316.731 383.318 313.959 383.082C311.022 382.832 308.752 382.188 306.013 381.222C289.164 375.426 272.703 364.959 243.964 342.328C230.071 331.394 221.97 325.164 217.079 321.832C215.109 320.489 213.862 319.759 213.094 319.383C212.56 319.607 211.988 319.784 211.374 319.891C213.464 321.97 215.283 323.656 216.568 324.685C221.004 328.183 225.589 332.381 229.377 336.299C233.032 340.079 236.387 344.046 237.91 347.024L237.92 347.044L237.93 347.064C238.419 348.043 238.897 349.101 239.199 350.025C239.32 350.398 239.568 351.196 239.594 352.106C239.606 352.498 239.613 353.629 238.953 354.835Z" fill="#040404" stroke="#FFFAFA" stroke-width="10"/>
<mask id="path-6-inside-1" fill="white">
<path d="M610.058 297.7C587.858 299.5 565.558 305.4 549.058 313.8C543.858 316.5 536.358 319.5 532.358 320.5C519.058 324 510.658 329.5 488.058 349.5C469.858 365.6 463.658 370.4 455.158 374.7L448.858 377.9L451.558 380.1L454.258 382.2L451.558 384.3C447.858 387.2 445.458 387.8 442.958 386.5C441.158 385.5 440.358 385.8 437.458 388.6C433.458 392.4 433.358 393.1 436.158 394C438.058 394.6 438.158 394.8 436.458 396.6C434.058 399.2 435.858 399 438.758 396.3C440.458 394.7 441.358 394.4 442.158 395.2C444.858 397.9 434.958 408.6 428.158 410.5C424.558 411.4 423.858 412.2 420.858 418.2C417.858 424.4 413.658 428.5 410.358 428.5C408.258 428.5 408.958 425.6 411.258 424.4C413.058 423.4 413.158 423.1 412.058 422.7C411.258 422.5 409.358 421 407.958 419.4C404.958 416.2 405.658 415.5 411.958 415.5C413.958 415.5 416.558 414.8 417.658 413.9C419.458 412.4 419.458 412.4 417.258 413C416.058 413.4 412.758 412.9 409.958 412C407.258 411.1 403.858 410.6 402.558 410.9C397.658 412.1 387.658 425.2 377.158 444.3C373.658 450.5 368.758 458.4 366.258 461.8C361.558 468.2 359.158 473.3 359.058 477.3C359.058 478.6 358.358 480.9 357.558 482.5C356.058 485.3 354.758 486 350.958 485.7C347.158 485.4 335.758 516.9 335.958 527.1C336.058 531.5 335.258 535.3 333.158 541.2C330.858 547.4 329.458 555.1 326.658 576C320.758 619.9 319.758 632.5 320.358 655C320.858 675.4 322.158 685 326.058 698C327.258 701.8 328.858 708.1 329.658 711.9C330.458 715.8 332.458 723.1 334.058 728.2C337.058 737.4 337.658 744.1 336.058 748C335.358 749.7 335.058 749.4 333.358 745.5C332.258 743 330.558 738.6 329.658 735.7C328.658 732.9 327.658 730.5 327.458 730.5C327.158 730.5 327.258 733.3 327.658 736.7C328.358 743 331.058 750.2 346.758 787.5C366.858 835.3 383.658 854.5 421.258 872.8C428.658 876.4 435.958 880.6 437.558 882.3C441.858 886.6 450.958 892.1 463.558 898.1C489.858 910.6 519.258 917.3 555.858 919.1L570.158 919.8L569.858 917C569.358 912.1 573.758 911.3 602.558 911C619.258 910.9 631.758 910.2 640.058 909.1C646.958 908.2 660.658 907 670.558 906.5C695.558 905.2 703.858 903.1 742.558 888.5C753.058 884.5 765.158 880.2 769.558 878.8C788.458 872.8 826.458 845.1 847.158 822.3C884.658 780.7 905.258 736.6 911.258 685C912.958 670.2 912.958 621.6 911.258 610.5C906.658 580.3 900.058 559.2 886.658 532C873.558 505.6 858.158 483.9 836.158 461.2C796.658 420.3 754.658 397.7 703.958 389.9C688.558 387.5 657.558 387.5 643.558 389.8C598.358 397.5 566.458 414.9 528.958 452.4C500.158 481.3 482.058 509.6 470.558 544C462.858 567 459.958 585 460.058 609.5C460.058 627.2 460.958 637.2 464.158 652.9C473.558 699.2 507.658 743.8 549.558 764.4C560.658 769.9 583.058 777.7 596.058 780.6C621.858 786.3 649.458 785.3 696.058 776.8C710.558 774.2 710.558 774.2 718.058 768.7C739.058 753.4 757.358 729.1 770.658 699C775.358 688.2 776.258 685.1 779.058 668.5C783.258 644.4 783.958 630.5 781.558 619.9C780.458 615.2 779.758 607.2 779.558 600C779.358 586.7 778.158 581.1 770.658 558.8C766.658 546.9 765.558 544.7 760.058 538.1C741.658 515.5 714.658 499.6 685.458 494C680.058 493 677.358 493.2 659.958 496.1C636.558 499.9 629.858 501.6 620.258 506.1C606.458 512.4 595.558 526.7 595.858 538.1C596.058 543.3 601.858 604.9 602.658 609.5C603.558 615.3 609.658 626.7 614.858 632.6C617.658 635.6 623.058 640.3 626.958 642.9C636.458 649.3 652.858 656.9 654.358 655.7C655.058 655.1 658.658 654.2 662.358 653.7C670.058 652.5 672.258 651.2 671.858 648.1C671.558 646.2 670.658 645.9 663.558 645.4C653.458 644.6 637.158 638.5 628.558 632.3C617.858 624.5 609.758 609.7 607.058 593.2C606.558 589.8 605.358 578.7 604.558 568.5C603.758 558.3 602.858 549.1 602.558 547.9C602.158 546.3 603.458 544.7 607.858 541.2C623.058 528.8 645.758 522.5 675.358 522.5C686.158 522.5 686.358 522.5 694.858 526.7C707.458 532.9 717.258 541.2 720.458 548.5C722.058 552.2 728.658 582.4 731.958 601.5C738.758 641.2 736.458 666 723.758 689.7C716.558 703.1 710.658 710.9 703.058 717C684.658 731.9 659.658 740 628.558 741.2C584.858 742.8 549.258 731.6 524.658 708.5C516.558 700.8 512.458 695.4 504.758 682.4C494.058 664.2 488.458 648.4 485.458 628.2C482.958 611.4 483.958 581.5 487.558 564.5C492.758 539.6 501.758 517.5 513.858 499.8C542.058 458.8 577.758 430 616.158 417.2C634.558 411 657.158 407.8 673.558 409C685.158 409.8 711.358 414 721.058 416.6C777.958 431.7 831.758 485.4 851.958 547.1C862.958 580.7 860.458 638.8 845.858 687.9C839.358 710 825.358 740.4 812.958 759.5C783.558 804.8 768.258 818.6 719.858 843.1C706.758 849.7 702.258 851.5 698.958 851.5C692.558 851.5 683.058 854.2 668.558 860C649.958 867.5 649.458 867.6 635.858 867.9C625.058 868.2 621.458 868.7 607.058 872.5C591.758 876.5 589.658 876.8 578.058 876.8C571.158 876.8 554.158 876.7 540.358 876.6C512.958 876.5 504.458 875.7 496.058 872C493.058 870.7 488.458 869.4 485.858 869C480.058 868.2 476.758 865.7 470.758 857.2C466.158 850.9 460.758 846.6 459.558 848.5C458.158 850.7 453.158 849.3 446.158 844.9C442.258 842.3 437.658 840.2 436.158 840C433.958 839.9 431.658 838 426.958 832.6C423.458 828.7 419.158 823.5 417.558 821.2C415.858 818.9 411.258 812.8 407.358 807.7C395.058 791.8 385.658 773.3 381.058 755.9C375.058 733.2 372.258 726.5 368.658 726.5C367.458 726.5 367.458 725.8 368.358 722.9C369.158 720.3 369.158 717.9 368.358 714.2C366.858 707.2 362.458 697.4 360.858 697.7C358.658 698.2 355.858 691.4 356.458 686.8C356.758 684.5 356.558 682.3 356.058 682C354.358 680.9 354.958 679.5 357.158 679.5C359.158 679.5 359.258 679.1 358.858 674.4C358.558 671.1 357.758 668.9 356.758 668.4C355.858 667.9 354.658 665.1 354.058 662.2C352.958 656.7 353.658 650.9 356.658 641.1C357.458 638.3 358.558 630.5 359.158 623.8C360.058 612.1 361.558 605.2 368.658 579.5C370.558 573 371.458 567 371.658 560.5C371.758 555.3 372.158 550.1 372.558 549C374.058 544.2 375.758 542 378.058 541.7C380.058 541.5 382.758 537.9 392.358 522.6C403.258 505.2 404.058 503.6 402.958 501.2C401.358 497.7 402.458 492.8 406.658 484.7L410.258 478L405.658 482.5C402.458 485.5 401.058 487.7 401.058 489.5C401.058 491.6 400.558 492.1 398.958 492.1C397.758 492 396.458 492.7 396.158 493.5C391.158 504 386.958 509.3 384.158 508.4C382.458 507.8 398.458 476.5 407.158 463.5C426.258 434.7 450.358 408.6 480.858 383.8C486.858 378.9 488.658 377.9 491.058 378.3C492.658 378.5 496.358 378.2 499.258 377.5C505.558 376 518.358 369.8 517.658 368.6C516.558 366.9 520.858 364.4 527.158 363C530.658 362.3 534.558 361.3 535.858 360.9C537.458 360.4 538.058 360.7 538.058 361.9C538.058 362.8 538.258 363.5 538.558 363.5C539.058 363.5 547.258 360.4 547.858 360C547.958 359.9 547.658 358.6 547.158 357.2C545.058 351.8 555.658 342.1 567.058 338.9C570.058 338 576.658 335.6 581.558 333.5C602.458 324.6 618.958 320.7 640.058 319.6C671.958 318 699.158 322.3 759.058 338.4C773.058 342.2 784.658 345.2 784.858 345.1C784.958 344.9 779.358 341.4 772.358 337.3C734.158 314.7 706.258 303.8 674.458 299C661.958 297.1 626.558 296.4 610.058 297.7Z"/>
</mask>
<path d="M610.058 297.7C587.858 299.5 565.558 305.4 549.058 313.8C543.858 316.5 536.358 319.5 532.358 320.5C519.058 324 510.658 329.5 488.058 349.5C469.858 365.6 463.658 370.4 455.158 374.7L448.858 377.9L451.558 380.1L454.258 382.2L451.558 384.3C447.858 387.2 445.458 387.8 442.958 386.5C441.158 385.5 440.358 385.8 437.458 388.6C433.458 392.4 433.358 393.1 436.158 394C438.058 394.6 438.158 394.8 436.458 396.6C434.058 399.2 435.858 399 438.758 396.3C440.458 394.7 441.358 394.4 442.158 395.2C444.858 397.9 434.958 408.6 428.158 410.5C424.558 411.4 423.858 412.2 420.858 418.2C417.858 424.4 413.658 428.5 410.358 428.5C408.258 428.5 408.958 425.6 411.258 424.4C413.058 423.4 413.158 423.1 412.058 422.7C411.258 422.5 409.358 421 407.958 419.4C404.958 416.2 405.658 415.5 411.958 415.5C413.958 415.5 416.558 414.8 417.658 413.9C419.458 412.4 419.458 412.4 417.258 413C416.058 413.4 412.758 412.9 409.958 412C407.258 411.1 403.858 410.6 402.558 410.9C397.658 412.1 387.658 425.2 377.158 444.3C373.658 450.5 368.758 458.4 366.258 461.8C361.558 468.2 359.158 473.3 359.058 477.3C359.058 478.6 358.358 480.9 357.558 482.5C356.058 485.3 354.758 486 350.958 485.7C347.158 485.4 335.758 516.9 335.958 527.1C336.058 531.5 335.258 535.3 333.158 541.2C330.858 547.4 329.458 555.1 326.658 576C320.758 619.9 319.758 632.5 320.358 655C320.858 675.4 322.158 685 326.058 698C327.258 701.8 328.858 708.1 329.658 711.9C330.458 715.8 332.458 723.1 334.058 728.2C337.058 737.4 337.658 744.1 336.058 748C335.358 749.7 335.058 749.4 333.358 745.5C332.258 743 330.558 738.6 329.658 735.7C328.658 732.9 327.658 730.5 327.458 730.5C327.158 730.5 327.258 733.3 327.658 736.7C328.358 743 331.058 750.2 346.758 787.5C366.858 835.3 383.658 854.5 421.258 872.8C428.658 876.4 435.958 880.6 437.558 882.3C441.858 886.6 450.958 892.1 463.558 898.1C489.858 910.6 519.258 917.3 555.858 919.1L570.158 919.8L569.858 917C569.358 912.1 573.758 911.3 602.558 911C619.258 910.9 631.758 910.2 640.058 909.1C646.958 908.2 660.658 907 670.558 906.5C695.558 905.2 703.858 903.1 742.558 888.5C753.058 884.5 765.158 880.2 769.558 878.8C788.458 872.8 826.458 845.1 847.158 822.3C884.658 780.7 905.258 736.6 911.258 685C912.958 670.2 912.958 621.6 911.258 610.5C906.658 580.3 900.058 559.2 886.658 532C873.558 505.6 858.158 483.9 836.158 461.2C796.658 420.3 754.658 397.7 703.958 389.9C688.558 387.5 657.558 387.5 643.558 389.8C598.358 397.5 566.458 414.9 528.958 452.4C500.158 481.3 482.058 509.6 470.558 544C462.858 567 459.958 585 460.058 609.5C460.058 627.2 460.958 637.2 464.158 652.9C473.558 699.2 507.658 743.8 549.558 764.4C560.658 769.9 583.058 777.7 596.058 780.6C621.858 786.3 649.458 785.3 696.058 776.8C710.558 774.2 710.558 774.2 718.058 768.7C739.058 753.4 757.358 729.1 770.658 699C775.358 688.2 776.258 685.1 779.058 668.5C783.258 644.4 783.958 630.5 781.558 619.9C780.458 615.2 779.758 607.2 779.558 600C779.358 586.7 778.158 581.1 770.658 558.8C766.658 546.9 765.558 544.7 760.058 538.1C741.658 515.5 714.658 499.6 685.458 494C680.058 493 677.358 493.2 659.958 496.1C636.558 499.9 629.858 501.6 620.258 506.1C606.458 512.4 595.558 526.7 595.858 538.1C596.058 543.3 601.858 604.9 602.658 609.5C603.558 615.3 609.658 626.7 614.858 632.6C617.658 635.6 623.058 640.3 626.958 642.9C636.458 649.3 652.858 656.9 654.358 655.7C655.058 655.1 658.658 654.2 662.358 653.7C670.058 652.5 672.258 651.2 671.858 648.1C671.558 646.2 670.658 645.9 663.558 645.4C653.458 644.6 637.158 638.5 628.558 632.3C617.858 624.5 609.758 609.7 607.058 593.2C606.558 589.8 605.358 578.7 604.558 568.5C603.758 558.3 602.858 549.1 602.558 547.9C602.158 546.3 603.458 544.7 607.858 541.2C623.058 528.8 645.758 522.5 675.358 522.5C686.158 522.5 686.358 522.5 694.858 526.7C707.458 532.9 717.258 541.2 720.458 548.5C722.058 552.2 728.658 582.4 731.958 601.5C738.758 641.2 736.458 666 723.758 689.7C716.558 703.1 710.658 710.9 703.058 717C684.658 731.9 659.658 740 628.558 741.2C584.858 742.8 549.258 731.6 524.658 708.5C516.558 700.8 512.458 695.4 504.758 682.4C494.058 664.2 488.458 648.4 485.458 628.2C482.958 611.4 483.958 581.5 487.558 564.5C492.758 539.6 501.758 517.5 513.858 499.8C542.058 458.8 577.758 430 616.158 417.2C634.558 411 657.158 407.8 673.558 409C685.158 409.8 711.358 414 721.058 416.6C777.958 431.7 831.758 485.4 851.958 547.1C862.958 580.7 860.458 638.8 845.858 687.9C839.358 710 825.358 740.4 812.958 759.5C783.558 804.8 768.258 818.6 719.858 843.1C706.758 849.7 702.258 851.5 698.958 851.5C692.558 851.5 683.058 854.2 668.558 860C649.958 867.5 649.458 867.6 635.858 867.9C625.058 868.2 621.458 868.7 607.058 872.5C591.758 876.5 589.658 876.8 578.058 876.8C571.158 876.8 554.158 876.7 540.358 876.6C512.958 876.5 504.458 875.7 496.058 872C493.058 870.7 488.458 869.4 485.858 869C480.058 868.2 476.758 865.7 470.758 857.2C466.158 850.9 460.758 846.6 459.558 848.5C458.158 850.7 453.158 849.3 446.158 844.9C442.258 842.3 437.658 840.2 436.158 840C433.958 839.9 431.658 838 426.958 832.6C423.458 828.7 419.158 823.5 417.558 821.2C415.858 818.9 411.258 812.8 407.358 807.7C395.058 791.8 385.658 773.3 381.058 755.9C375.058 733.2 372.258 726.5 368.658 726.5C367.458 726.5 367.458 725.8 368.358 722.9C369.158 720.3 369.158 717.9 368.358 714.2C366.858 707.2 362.458 697.4 360.858 697.7C358.658 698.2 355.858 691.4 356.458 686.8C356.758 684.5 356.558 682.3 356.058 682C354.358 680.9 354.958 679.5 357.158 679.5C359.158 679.5 359.258 679.1 358.858 674.4C358.558 671.1 357.758 668.9 356.758 668.4C355.858 667.9 354.658 665.1 354.058 662.2C352.958 656.7 353.658 650.9 356.658 641.1C357.458 638.3 358.558 630.5 359.158 623.8C360.058 612.1 361.558 605.2 368.658 579.5C370.558 573 371.458 567 371.658 560.5C371.758 555.3 372.158 550.1 372.558 549C374.058 544.2 375.758 542 378.058 541.7C380.058 541.5 382.758 537.9 392.358 522.6C403.258 505.2 404.058 503.6 402.958 501.2C401.358 497.7 402.458 492.8 406.658 484.7L410.258 478L405.658 482.5C402.458 485.5 401.058 487.7 401.058 489.5C401.058 491.6 400.558 492.1 398.958 492.1C397.758 492 396.458 492.7 396.158 493.5C391.158 504 386.958 509.3 384.158 508.4C382.458 507.8 398.458 476.5 407.158 463.5C426.258 434.7 450.358 408.6 480.858 383.8C486.858 378.9 488.658 377.9 491.058 378.3C492.658 378.5 496.358 378.2 499.258 377.5C505.558 376 518.358 369.8 517.658 368.6C516.558 366.9 520.858 364.4 527.158 363C530.658 362.3 534.558 361.3 535.858 360.9C537.458 360.4 538.058 360.7 538.058 361.9C538.058 362.8 538.258 363.5 538.558 363.5C539.058 363.5 547.258 360.4 547.858 360C547.958 359.9 547.658 358.6 547.158 357.2C545.058 351.8 555.658 342.1 567.058 338.9C570.058 338 576.658 335.6 581.558 333.5C602.458 324.6 618.958 320.7 640.058 319.6C671.958 318 699.158 322.3 759.058 338.4C773.058 342.2 784.658 345.2 784.858 345.1C784.958 344.9 779.358 341.4 772.358 337.3C734.158 314.7 706.258 303.8 674.458 299C661.958 297.1 626.558 296.4 610.058 297.7Z" fill="#0BCAF3" stroke="#FFFAFA" stroke-width="20" mask="url(#path-6-inside-1)"/>
<mask id="path-7-inside-2" fill="white">
<path d="M206.558 343.5C210.958 347.9 212.758 349.2 213.658 348.4C214.358 347.8 215.558 347.7 216.258 348.1C217.158 348.5 217.258 348.5 216.558 347.8C214.958 346.2 202.058 337.5 201.258 337.5C200.958 337.5 203.258 340.2 206.558 343.5Z"/>
</mask>
<path d="M206.558 343.5C210.958 347.9 212.758 349.2 213.658 348.4C214.358 347.8 215.558 347.7 216.258 348.1C217.158 348.5 217.258 348.5 216.558 347.8C214.958 346.2 202.058 337.5 201.258 337.5C200.958 337.5 203.258 340.2 206.558 343.5Z" fill="#0BCAF3"/>
<path d="M213.658 348.4L207.014 340.926L207.081 340.866L207.15 340.807L213.658 348.4ZM216.258 348.1L212.196 357.238L211.735 357.033L211.296 356.782L216.258 348.1ZM213.629 336.429C214.675 337.476 215.487 338.257 216.121 338.832C216.434 339.117 216.676 339.326 216.859 339.477C216.95 339.551 217.018 339.606 217.067 339.643C217.116 339.681 217.139 339.696 217.136 339.695C217.135 339.693 217.098 339.668 217.028 339.625C216.96 339.583 216.843 339.515 216.682 339.434C216.391 339.287 215.771 339.003 214.886 338.813C213.967 338.616 212.632 338.494 211.077 338.844C209.461 339.208 208.081 339.978 207.014 340.926L220.301 355.874C217.307 358.536 213.622 358.997 210.689 358.368C208.372 357.871 206.617 356.741 205.704 356.105C203.764 354.754 201.633 352.718 199.487 350.571L213.629 336.429ZM207.15 340.807C209.353 338.919 211.873 338.144 213.911 337.93C215.884 337.722 218.595 337.918 221.219 339.418L211.296 356.782C213.22 357.882 214.981 357.928 216.005 357.82C217.093 357.705 218.663 357.281 220.166 355.993L207.15 340.807ZM220.319 338.962C220.573 339.075 220.443 339.01 220.191 338.919C220.107 338.889 219.57 338.69 218.825 338.546C218.463 338.476 217.653 338.338 216.609 338.377C215.74 338.409 213.36 338.599 211.008 340.362C208.083 342.556 207.017 345.757 207.017 348.342C207.017 350.424 207.674 351.946 207.924 352.49C208.466 353.666 209.117 354.438 209.176 354.509C209.464 354.863 209.678 355.062 209.487 354.871L223.629 340.729C223.788 340.888 224.252 341.349 224.69 341.888C224.823 342.051 225.525 342.896 226.091 344.126C226.354 344.697 227.017 346.242 227.017 348.342C227.017 350.945 225.944 354.16 223.008 356.362C220.643 358.136 218.244 358.33 217.35 358.363C216.281 358.403 215.44 358.262 215.04 358.185C214.22 358.027 213.583 357.797 213.375 357.722C212.872 357.54 212.393 357.325 212.196 357.238L220.319 338.962ZM209.487 354.871C209.797 355.182 209.897 355.225 209.37 354.819C208.982 354.521 208.441 354.12 207.766 353.634C206.422 352.668 204.722 351.49 203.02 350.343C201.313 349.193 199.679 348.125 198.466 347.368C197.844 346.979 197.43 346.734 197.211 346.612C197.084 346.541 197.156 346.586 197.351 346.677C197.44 346.718 197.717 346.844 198.11 346.98C198.226 347.02 199.519 347.5 201.258 347.5V327.5C203.047 327.5 204.413 327.997 204.625 328.07C205.114 328.239 205.508 328.414 205.737 328.52C206.21 328.738 206.642 328.971 206.948 329.142C207.593 329.502 208.331 329.949 209.056 330.401C210.536 331.325 212.378 332.532 214.195 333.757C216.018 334.985 217.893 336.282 219.443 337.397C220.655 338.269 222.528 339.628 223.629 340.729L209.487 354.871ZM201.258 347.5C203.069 347.5 206.392 346.939 208.916 343.914C211.219 341.153 211.284 338.171 211.215 336.963C211.089 334.739 210.211 333.156 210.186 333.107C209.966 332.671 209.768 332.367 209.702 332.267C209.616 332.136 209.555 332.053 209.54 332.033C209.521 332.007 209.672 332.206 210.089 332.684C210.863 333.569 212.104 334.904 213.629 336.429L199.487 350.571C197.711 348.796 196.153 347.13 195.027 345.841C194.493 345.231 193.92 344.549 193.451 343.914C193.293 343.7 192.785 343.015 192.342 342.138C192.276 342.009 191.377 340.364 191.248 338.1C191.178 336.871 191.246 333.874 193.558 331.102C196.091 328.066 199.428 327.5 201.258 327.5V347.5Z" fill="#FFFAFA" mask="url(#path-7-inside-2)"/>
<path d="M426.558 398.5C426.291 398.056 426.577 397.612 427.205 397.518L427.453 397.903L426.558 398.5ZM426.558 398.5L427.458 397.96L427.48 397.946L428.158 399M426.558 398.5C426.789 398.847 427.122 399.061 427.458 399.12C427.702 399.164 427.947 399.126 428.158 399M428.158 399L427.513 397.926L428.16 397.539C429.309 397.685 429.35 398.234 428.158 399ZM427.458 397.5C427.39 397.5 427.325 397.503 427.264 397.51L427.458 397.833L427.486 397.881L428.022 397.524C427.854 397.508 427.666 397.5 427.458 397.5Z" fill="#0BCAF3" stroke="#FFFAFA" stroke-width="10"/>
<path d="M1080.21 481.154C1095.37 475.119 1112.84 468.333 1124.58 463.89C1122.86 464.238 1120.97 464.608 1119 464.986C1111.51 466.417 1102.64 467.982 1096.79 468.846L1096.77 468.848L1096.76 468.85C1079.65 471.28 1067.28 472.389 1025.37 474.99C1023.07 475.138 1020.87 475.279 1018.75 475.414C994.257 476.981 982.195 477.752 974.75 478.812C967.684 479.819 965.246 480.989 959.345 483.821C958.952 484.01 958.543 484.206 958.117 484.409C946.756 489.859 936.416 493.709 926.902 495.951C928.103 496.152 929.278 496.407 930.352 496.692C931.644 497.035 932.948 497.461 934.07 497.968C934.627 498.219 935.249 498.539 935.837 498.943C936.296 499.259 937.086 499.859 937.712 500.815C939.039 502.76 938.594 504.827 938.492 505.29C938.303 506.148 937.964 506.914 937.678 507.478C937.079 508.655 936.222 509.893 935.299 511.001L935.254 511.055L935.207 511.108C934.172 512.281 931.916 515.97 930.366 519.163C929.967 520.003 929.645 520.685 929.384 521.252C929.526 521.306 929.676 521.362 929.835 521.419C931.078 521.865 932.6 522.301 934.066 522.603L934.09 522.608L934.114 522.613C940.249 523.939 947.625 523.274 971.376 518.018C999.764 511.71 1023.96 503.536 1080.21 481.154ZM1080.21 481.154L1082.06 485.794L1080.21 481.154ZM927.769 520.42C927.769 520.42 927.771 520.423 927.777 520.428C927.772 520.423 927.769 520.42 927.769 520.42ZM920.501 495.312C920.499 495.311 920.498 495.311 920.498 495.311C920.498 495.311 920.499 495.312 920.501 495.312Z" fill="#0BCAF3" stroke="#FFFAFA" stroke-width="10"/>
<path d="M70.0697 525.502C66.1532 524.053 57.3724 520.52 47.3532 516.408C54.1072 517.838 61.3758 519.382 68.4938 520.893C71.0304 521.432 73.5479 521.966 76.0161 522.49L70.0697 525.502ZM70.0697 525.502C81.601 529.64 99.2983 534.978 112.195 538.031C112.2 538.032 112.205 538.033 112.209 538.034L118.682 539.528L117.358 549.396L111.003 549.142C128.885 554.424 149.363 558.747 172.261 562.05C188.284 564.297 191.792 564.5 229.458 564.5C251.572 564.5 276.457 564.199 284.72 563.806L284.732 563.805L284.744 563.805C287.981 563.666 290.435 563.556 292.287 563.455C292.352 562.853 292.497 562.253 292.72 561.664C293.249 560.27 294.159 559.104 294.925 558.215C295.744 557.265 296.804 556.182 298.022 554.964L298.058 554.928L298.095 554.893C298.742 554.272 299.345 553.665 299.874 553.111C299.566 552.828 299.212 552.52 298.808 552.188C296.593 550.368 293.39 548.249 289.731 546.326L289.724 546.322C287.014 544.892 284.71 543.612 282.892 542.375C281.105 541.16 279.371 539.717 278.204 537.807C276.041 534.269 276.678 530.639 277.728 527.547C275.846 528.117 273.402 528.313 270.57 528.49L270.56 528.491C268.928 528.59 267.763 528.682 266.88 528.794C265.992 528.906 265.574 529.016 265.38 529.083C265.277 529.119 265.267 529.131 265.262 529.137C265.261 529.138 265.26 529.139 265.259 529.139C265.185 529.201 265.003 529.372 264.562 529.923L264.542 529.949L264.521 529.974L262.221 532.774L260.773 534.537L258.492 534.598L236.092 535.198L236.083 535.198C219.898 535.603 206.34 535.197 188.721 533.989C175.284 533.093 153.353 531.996 139.894 531.497C139.887 531.497 139.88 531.497 139.873 531.497L115.415 530.798L114.961 530.785L114.516 530.69L76.0195 522.491L70.0697 525.502Z" fill="#0BCAF3" stroke="#FFFAFA" stroke-width="10"/>
<path d="M949.741 648.898L949.739 648.899C948.207 649.642 946.543 650.532 945.122 651.359C944.879 651.501 944.65 651.636 944.437 651.764L947.717 655.089L947.718 655.09C967.403 675.06 990.926 685.433 1028.98 690.239C1039.78 691.589 1050.1 691.801 1099.14 691.6L1099.14 691.6C1156.92 691.42 1170.8 691.743 1182.91 695.513C1182.87 695.112 1182.86 694.708 1182.86 694.3C1182.86 693.998 1182.84 693.821 1182.83 693.727C1182.77 693.657 1182.66 693.535 1182.46 693.35C1182.11 693.03 1181.59 692.616 1180.81 692.037C1164.12 679.928 1145.44 672.862 1118.85 669.049L1118.84 669.048C1108.09 667.484 1090 666.094 1062.27 664.492C1024.77 662.38 1015.69 660.943 993.516 653.756L993.504 653.752C967.385 645.214 958.031 644.874 949.741 648.898Z" fill="#0BCAF3" stroke="#FFFAFA" stroke-width="10"/>
<path d="M314.758 662.2L314.328 662.071C314.283 661.705 314.258 661.171 314.258 660.5C314.258 659.775 314.287 659.211 314.34 658.839L314.758 658.7M314.758 662.2C314.857 661.753 314.907 661.133 314.908 660.5C314.908 659.858 314.858 659.203 314.758 658.7M314.758 662.2C314.567 662.835 314.417 662.744 314.333 662.105L314.758 662.2ZM314.758 658.7L314.348 658.782C314.435 658.231 314.578 658.161 314.758 658.7Z" fill="#0BCAF3" stroke="#FFFAFA" stroke-width="10"/>
<path d="M285.444 697.01L285.458 697C285.65 696.856 285.797 696.759 285.903 696.694C285.903 696.695 285.904 696.695 285.904 696.695C286.07 696.779 286.305 696.917 286.623 697.139C287.267 697.59 288.095 698.278 289.199 699.311C290.53 700.618 291.736 702.231 292.574 703.648C291.964 704.124 291.376 704.646 290.846 705.166C290.069 705.927 289.28 706.814 288.643 707.723C288.326 708.175 287.982 708.724 287.7 709.337C287.454 709.87 287.058 710.866 287.058 712.1C287.058 715.169 288.784 717.887 291.604 719.048C294.08 720.068 296.755 719.644 298.881 718.298C299.03 718.605 299.199 718.986 299.384 719.457C299.953 720.902 300.554 722.878 301.204 725.502L301.207 725.513C301.329 726.001 301.423 726.391 301.496 726.72C301.499 726.733 301.502 726.747 301.505 726.761C301.395 726.856 301.271 726.962 301.128 727.083L301.102 727.105L301.077 727.127C300.468 727.656 299.839 728.228 299.306 728.818C298.798 729.379 298.081 730.272 297.66 731.482C296.647 734.395 298.036 736.665 298.806 737.702C298.815 737.777 298.823 737.87 298.831 737.983C298.89 738.909 298.829 740.431 298.583 742.998C298.406 744.692 298.278 745.806 298.133 746.647C297.99 747.467 297.872 747.763 297.824 747.865C297.822 747.869 297.82 747.873 297.818 747.877C297.768 747.988 297.647 748.258 295.595 749.848L295.562 749.874L295.529 749.9C287.802 756.1 280.876 759.091 260.645 764.149L260.638 764.151C244.531 768.203 236.515 770.896 224.953 776.264L285.444 697.01ZM285.444 697.01L285.43 697.021M285.444 697.01L285.43 697.021M285.43 697.021C283.851 698.188 281.796 698.671 280.329 698.93C278.63 699.23 276.652 699.394 274.575 699.448C270.415 699.557 265.44 699.234 260.718 698.429L260.704 698.426M285.43 697.021L260.704 698.426M260.704 698.426C253.767 697.224 250.301 698.235 248.478 699.725C246.257 701.627 242.693 703.244 240.088 703.793L240.005 703.81L239.922 703.825C237.836 704.191 234.504 705.432 230.071 707.745C225.731 710.01 220.642 713.139 215.123 716.998L215.099 717.014L215.076 717.03C209.658 720.726 204.603 723.946 200.62 726.26C198.637 727.413 196.853 728.38 195.389 729.075C194.661 729.42 193.936 729.735 193.259 729.973C193.214 729.989 193.166 730.006 193.114 730.024C191.752 733.636 188.697 736.284 184.887 738.623C180.96 741.034 175.392 743.61 167.868 746.721L167.852 746.727L167.836 746.734C160.552 749.687 150.979 754.19 146.548 756.735C141.832 759.445 136.369 762.481 134.386 763.524L134.32 763.56L134.252 763.593C131.641 764.868 127.751 766.094 124.634 766.857C123.061 767.241 121.466 767.563 120.166 767.7C119.577 767.762 118.71 767.827 117.839 767.714C117.565 767.678 117.043 767.598 116.434 767.362M260.704 698.426L116.434 767.362M116.434 767.362C116.369 767.616 116.286 767.872 116.18 768.128C115.641 769.44 114.734 770.267 114.05 770.746C112.817 771.609 111.355 771.997 110.35 772.221C109.2 772.477 107.823 772.68 106.28 772.861C103.416 773.245 102.212 773.652 101.598 774C101.236 774.205 100.856 774.493 100.249 775.698M116.434 767.362L100.249 775.698M100.249 775.698C99.4694 777.322 98.2903 778.857 96.3984 779.908C94.6908 780.857 92.8358 781.159 91.194 781.281C90.7897 781.324 90.4331 781.379 90.1444 781.436C90.1014 781.472 90.0585 781.507 90.0158 781.541C90.4283 782.502 90.596 783.642 90.3146 784.877C89.9549 786.456 88.9961 787.461 88.59 787.859C87.7293 788.702 86.5416 789.435 85.6885 789.952C83.7361 791.187 74.8242 796.93 65.7778 802.795C62.0216 805.231 58.0213 807.76 54.3561 810.026C56.6719 809.642 59.2636 809.169 62.1755 808.597C71.1423 806.764 82.4911 805.222 88.808 804.906L88.8377 804.905L88.8674 804.903L99.3674 804.503L101.188 811.741C104.739 811.172 107.796 810.733 109.817 810.529C137.458 807.291 163.731 800.231 200.776 786.128C210.154 782.536 221.014 778.09 224.952 776.265L100.249 775.698ZM298.765 737.442C298.764 737.442 298.766 737.45 298.77 737.463C298.767 737.448 298.765 737.442 298.765 737.442ZM117.917 765.705C117.917 765.705 117.917 765.705 117.916 765.705L117.917 765.705Z" fill="#0BCAF3" stroke="#FFFAFA" stroke-width="10"/>
<path d="M916.025 813.08C912.119 812.868 908.412 812.997 905.823 813.418C905.685 815.074 904.846 816.273 904.113 816.987C903.392 817.69 902.606 818.106 902.043 818.353C900.001 819.249 897.151 819.5 894.458 819.5C893.717 819.5 893.128 819.518 892.657 819.547L899.154 825.925C899.155 825.926 899.156 825.927 899.157 825.928C921.454 847.737 943.652 861.652 994.667 885.466C1008.5 891.884 1025.94 900.303 1033.59 904.127L1033.61 904.133L1033.62 904.139C1034.25 904.461 1034.88 904.778 1035.49 905.086C1033.93 901.696 1032.41 898.558 1031.51 896.96L1031.5 896.951L1031.49 896.941C1025.64 886.475 1017.39 875.744 1008.56 866.659C999.694 857.537 990.529 850.371 982.925 846.722C978.431 844.632 967.88 838.257 959.407 832.675L959.402 832.672C943.2 821.97 933.433 816.747 926.693 814.68C924.134 813.896 920.206 813.306 916.025 813.08Z" fill="#0257FB" stroke="#FFFAFA" stroke-width="10"/>
<path d="M155.658 1082C155.043 1082.95 154.491 1083.7 154.631 1083.86C154.75 1084.01 155.367 1083.73 156.867 1082.81L155.658 1082ZM155.658 1082C155.957 1081.55 156.641 1080.8 157.599 1079.84C157.828 1080.01 158.055 1080.21 158.274 1080.44C158.582 1080.77 158.822 1081.11 159.007 1081.44C158.158 1082 157.458 1082.44 156.886 1082.79L155.658 1082ZM174.914 1064.74C177.392 1062.57 179.315 1060.8 180.058 1060C182.458 1057.5 182.458 1057.3 180.758 1056L174.914 1064.74ZM174.914 1064.74C175.763 1064.17 176.643 1063.58 177.554 1062.96L174.914 1064.74ZM363.222 858.402L363.096 858.538L362.96 858.664C362.833 858.782 362.682 858.946 362.524 859.148C362.368 859.349 362.231 859.556 362.124 859.743C362.081 859.818 362.048 859.881 362.023 859.932C361.85 861.507 361.08 862.73 360.736 863.256C360.192 864.087 359.5 864.916 358.777 865.697C357.314 867.277 355.324 869.088 353.024 870.97L353.003 870.987L352.982 871.004C303.328 910.747 249.514 969.091 192.153 1045.31L192.145 1045.32C188.84 1049.69 186.894 1052.31 185.795 1053.94C186.292 1054.62 186.762 1055.54 186.91 1056.67C189.445 1054.99 191.741 1053.48 193.696 1052.23C195.768 1050.9 197.51 1049.82 198.762 1049.09C199.361 1048.74 199.977 1048.4 200.504 1048.16C200.698 1048.07 201.219 1047.83 201.845 1047.69L201.859 1047.69C202.078 1047.64 203.048 1047.42 204.224 1047.71C204.929 1047.88 205.997 1048.31 206.875 1049.36C207.058 1049.57 207.216 1049.8 207.35 1050.02C209.847 1047.88 212.014 1046.12 213.909 1044.72C216.176 1043.04 218.237 1041.73 220.148 1040.88C222.044 1040.03 224.142 1039.46 226.345 1039.73C226.7 1039.77 227.373 1039.85 228.058 1040.06C228.522 1040.2 229.543 1040.56 230.468 1041.45C254.503 1019.52 279.715 995.427 338.073 938.815C348.824 928.364 358.879 918.609 366.448 911.303C373.585 904.413 378.785 899.432 380.072 898.33C380.628 897.829 380.821 897.552 380.877 897.457C380.877 897.437 380.875 897.407 380.871 897.369C380.841 897.076 380.7 896.441 380.165 895.255C379.638 894.089 378.836 892.615 377.674 890.679C375.151 886.507 373.348 882.807 372.619 879.412C371.835 875.756 372.289 872.394 374.216 869.352C374.186 869.296 374.153 869.237 374.118 869.174C373.684 868.394 373.057 867.373 372.12 865.853C370.337 863.051 368.38 860.786 366.627 859.282C365.433 858.257 364.612 857.82 364.185 857.635C364.03 857.729 363.866 857.842 363.706 857.966C363.504 858.124 363.34 858.275 363.222 858.402ZM184.754 1055.7C184.756 1055.7 184.77 1055.67 184.788 1055.61C184.761 1055.67 184.752 1055.7 184.754 1055.7ZM183.703 1051.96C183.623 1051.89 183.603 1051.89 183.685 1051.95L183.703 1051.96ZM198.114 1052.03C198.114 1052.03 198.11 1052.04 198.105 1052.07C198.112 1052.04 198.115 1052.03 198.114 1052.03ZM222.509 1043.78C222.509 1043.78 222.506 1043.79 222.5 1043.8C222.507 1043.79 222.509 1043.78 222.509 1043.78ZM364.635 857.4C364.635 857.4 364.635 857.4 364.634 857.4L364.635 857.4Z" fill="#0BCAF3" stroke="#FFFAFA" stroke-width="10"/>
<mask id="path-17-inside-3" fill="white">
<path d="M397.658 868.6C402.558 874 423.958 885.4 427.158 884.3C427.658 884.1 424.758 881.5 420.758 878.5C415.358 874.4 412.658 873 409.758 872.8C407.358 872.7 404.458 871.5 401.858 869.6C397.058 866 394.858 865.5 397.658 868.6Z"/>
</mask>
<path d="M397.658 868.6C402.558 874 423.958 885.4 427.158 884.3C427.658 884.1 424.758 881.5 420.758 878.5C415.358 874.4 412.658 873 409.758 872.8C407.358 872.7 404.458 871.5 401.858 869.6C397.058 866 394.858 865.5 397.658 868.6Z" fill="#0BCAF3"/>
<path d="M397.658 868.6L390.252 875.32L390.244 875.311L390.237 875.303L397.658 868.6ZM427.158 884.3L430.872 893.585L430.642 893.676L430.408 893.757L427.158 884.3ZM420.758 878.5L414.758 886.5L414.734 886.482L414.711 886.464L420.758 878.5ZM409.758 872.8L410.174 862.808L410.31 862.814L410.446 862.823L409.758 872.8ZM401.858 869.6L395.958 877.674L395.907 877.637L395.858 877.6L401.858 869.6ZM405.063 861.88C405.062 861.878 405.088 861.907 405.15 861.967C405.211 862.027 405.297 862.107 405.411 862.209C405.642 862.415 405.952 862.674 406.348 862.982C407.146 863.604 408.171 864.334 409.391 865.138C411.832 866.748 414.79 868.487 417.745 870.06C420.723 871.646 423.49 872.953 425.555 873.767C426.612 874.184 427.248 874.377 427.514 874.44C427.649 874.473 427.475 874.419 427.082 874.391C426.845 874.373 425.559 874.275 423.907 874.843L430.408 893.757C428.356 894.462 426.528 894.404 425.624 894.337C424.564 894.26 423.597 894.069 422.831 893.884C421.294 893.514 419.696 892.955 418.22 892.373C415.219 891.19 411.73 889.516 408.346 887.714C404.938 885.9 401.428 883.845 398.378 881.833C395.552 879.969 392.382 877.667 390.252 875.32L405.063 861.88ZM423.444 875.015C422.187 875.518 420.736 876.403 419.509 877.876C418.266 879.37 417.613 881.037 417.355 882.553C416.896 885.243 417.684 887.288 417.933 887.898C418.27 888.722 418.641 889.296 418.804 889.537C418.996 889.822 419.155 890.019 419.23 890.111C419.442 890.366 419.439 890.32 418.942 889.871C418.084 889.095 416.618 887.895 414.758 886.5L426.758 870.5C428.898 872.105 430.881 873.704 432.348 875.029C433.014 875.63 433.892 876.458 434.632 877.351C434.873 877.643 435.8 878.749 436.448 880.334C436.736 881.041 437.539 883.165 437.07 885.917C436.442 889.595 433.924 892.363 430.872 893.585L423.444 875.015ZM414.711 886.464C412.119 884.496 410.646 883.546 409.719 883.066C409.307 882.852 409.11 882.789 409.069 882.777C409.05 882.771 409.071 882.776 409.07 882.776L410.446 862.823C416.609 863.249 421.431 866.455 426.805 870.535L414.711 886.464ZM409.341 882.791C404.32 882.582 399.54 880.292 395.958 877.674L407.758 861.526C408.457 862.037 409.123 862.397 409.656 862.614C410.225 862.846 410.401 862.818 410.174 862.808L409.341 882.791ZM395.858 877.6C394.839 876.836 394.089 876.336 393.621 876.054C392.838 875.582 393.366 876.028 394.626 876.323C395.031 876.418 395.909 876.595 397.062 876.548C398.153 876.503 400.39 876.218 402.581 874.536C408.068 870.323 406.092 864.215 405.931 863.74C405.688 863.021 405.414 862.512 405.278 862.273C405.126 862.008 405.004 861.833 404.956 861.767C404.867 861.643 404.879 861.676 405.079 861.897L390.237 875.303C389.736 874.748 389.204 874.119 388.718 873.443C388.339 872.915 387.521 871.732 386.984 870.144C386.711 869.336 384.76 863.004 390.4 858.673C392.667 856.932 395.013 856.615 396.243 856.565C397.536 856.512 398.584 856.709 399.19 856.851C401.249 857.334 403.052 858.386 403.944 858.924C405.152 859.652 406.476 860.564 407.858 861.6L395.858 877.6Z" fill="#FFFAFA" mask="url(#path-17-inside-3)"/>
<path d="M572.558 919.9C571.758 920.2 571.058 920 571.058 919.5C571.058 919.266 571.165 919.062 571.343 918.9C571.489 918.768 571.683 918.664 571.905 918.595L572.058 918.9L572.358 919.5L572.558 919.9ZM572.558 919.9L572.408 919.5L572.183 918.9L572.053 918.555C572.212 918.519 572.383 918.5 572.558 918.5C573.358 918.5 574.058 918.7 574.058 918.9C574.058 919.032 573.753 919.251 573.315 919.5C573.09 919.628 572.83 919.764 572.558 919.9Z" fill="#0BCAF3" stroke="#FFFAFA" stroke-width="10"/>
<path d="M733.083 936.757C731.025 937.61 729.183 938.466 727.772 939.223C728.38 940.333 728.824 941.582 728.958 942.946C729.128 944.669 728.777 946.334 727.962 947.798C727.988 947.891 728.017 947.989 728.048 948.094C728.538 949.732 729.518 952.314 731.152 956.127C737.126 969.999 742.774 985.141 752.779 1013.86L752.78 1013.86C770.7 1065.41 780.297 1088.35 793.369 1109.97C793.444 1087.8 790.928 1058.41 786.525 1031.82C784.039 1016.9 778.473 989.791 775.829 979.899C775.218 977.64 774.674 975.534 774.695 973.559C774.72 971.244 775.487 969.512 776.27 967.994C776.941 966.542 777.521 964.57 777.566 963.807L777.575 963.661L777.592 963.516C777.794 961.795 778.294 957.797 778.694 954.696C778.766 954.07 778.822 953.541 778.864 953.082C778.786 953.07 778.705 953.058 778.621 953.046L778.498 953.027L778.377 953.003C777.106 952.749 775.863 952.18 774.832 951.327C773.844 950.509 772.653 949.077 772.396 947.02C772.287 946.147 771.881 942.487 771.576 938.725C771.575 938.718 771.575 938.711 771.574 938.704L771.261 935.207L769.042 934.397L769.022 934.389L769.002 934.382C762.785 932.051 753.232 931.356 745.281 932.814C742.098 933.427 737.357 934.988 733.083 936.757Z" fill="#0BCAF3" stroke="#FFFAFA" stroke-width="10"/>
<path d="M526.831 947.26L526.783 947.293L526.733 947.324C525.837 947.892 524.894 948.493 523.996 949.065C523.464 949.404 522.948 949.733 522.467 950.039L524.452 954.108L525.49 956.237L524.5 958.39L514.702 979.685C514.702 979.686 514.701 979.687 514.701 979.688C490.819 1031.73 477.789 1066.52 437.796 1185.3L437.796 1185.3C426.384 1219.13 420.237 1237.5 417.112 1247.66C416.594 1249.34 416.167 1250.77 415.818 1251.99C419.388 1248.87 423.055 1244.4 429.247 1235.45L429.253 1235.44L429.259 1235.44C434.691 1227.66 437.485 1221.91 451.849 1187.76L451.851 1187.76C490.087 1097.07 511.025 1055.04 540.173 1010.46C544.058 1004.51 546.577 1000.77 548.472 998.561C549.44 997.431 550.525 996.355 551.844 995.6C553.343 994.741 554.779 994.5 556.058 994.5C556.1 994.5 556.14 994.5 556.178 994.499C556.214 994.416 556.255 994.318 556.3 994.201C556.527 993.61 556.782 992.756 557.08 991.5C557.696 988.637 558.809 985.933 560.374 983.816C560.536 983.597 560.71 983.375 560.898 983.152C558.917 981.321 557.211 979.618 556.175 977.776C554.954 975.605 554.815 973.592 554.913 971.819C554.815 971.619 554.675 971.352 554.48 971.014C553.842 969.904 552.85 968.419 551.586 966.708C549.064 963.294 545.725 959.338 542.622 956.236C540.449 954.062 536.801 950.887 533.517 948.218C532.13 947.091 530.855 946.092 529.83 945.328C528.952 945.873 527.914 946.538 526.831 947.26ZM555.066 972.159C555.084 972.225 555.098 972.26 555.099 972.259C555.101 972.259 555.092 972.226 555.066 972.159Z" fill="#06FE1F" stroke="#FFFAFA" stroke-width="10"/>
</svg>
