<svg width="1280" height="1096" viewBox="0 0 1280 1096" fill="none" xmlns="http://www.w3.org/2000/svg">
<path d="M959.5 1.00012C954 1.50012 930.6 3.30005 907.5 5.00012C884.4 6.70007 853.6 8.90002 839 10.0001C824.4 11.1001 756.9 16.0001 689 21.0001C621.1 26.0001 553.4 30.9 538.5 32.0001C486 35.9 429.1 40.0001 306.5 49.0001C238.3 54.0001 178.2 58.7001 173 59.6001C129.9 66.4 90.9999 86.1 60.4999 116.5C26.6999 150.1 6.29991 192.9 1.09991 241.2C-0.900086 259 -1.20009 253.1 9.99991 405.5C11.5999 427.5 14.2999 464.2 15.9999 487C17.6999 509.8 22.1999 571.7 25.9999 624.5C29.7999 677.3 33.6999 725.4 34.4999 731.3C40.5999 773.7 59.3999 812.4 88.8999 843.3C105 860.1 124.7 874.6 147.5 886.2C154.1 889.6 172.1 899.1 187.5 907.4C224.9 927.5 233 931.3 247.9 936.2C254.8 938.5 260.7 940.4 260.8 940.6C261.2 940.8 268.9 1045.1 269 1049.6C269 1051 276.5 1058.5 293.4 1073.9L317.9 1096L387.7 1042.7C426.1 1013.3 472.3 978 490.3 964.3L523.1 939.2L535.3 938.6C542 938.2 593.6 936.4 650 934.5C980.4 923.3 1102.5 918.9 1110.5 918C1203.4 907.1 1275.2 830.5 1279.6 737.5C1279.9 730.9 1279.2 699.6 1278.1 668C1277 636.4 1274.2 558.1 1272 494C1264.9 287.2 1264.1 267.9 1262.5 257.6C1256.4 217.9 1241 186.5 1210.9 152.5C1176.1 113.3 1136.9 69.7001 1130.1 62.6001C1099.2 30.7001 1059.4 9.90002 1015 2.50012C1003.6 0.600098 973.4 -0.199951 959.5 1.00012ZM1008.7 27.5001C1078.9 37.5001 1135.7 87.2001 1155.4 156C1160.3 173.4 1160.1 170.8 1170 306.5C1171.7 329.6 1174.4 366.5 1176 388.5C1194.9 645.5 1194.2 634.8 1193.6 652.5C1193 672 1190.3 687.1 1184.5 704C1171.7 740.7 1145.4 774.2 1113 795.2C1095.6 806.5 1072.6 815.9 1052.5 819.9C1040.9 822.2 1031 823.2 993 826C969.1 827.7 685.3 848.4 609.5 854C562.9 857.4 502.4 861.9 477.9 863.6L454.3 865.4L372.9 932.7C314.6 980.9 291.4 999.5 291.2 998.2C290.9 995.8 284.1 901.8 283.3 888.6L282.7 877.8L277.6 878.3C258.1 880.5 233.6 881.3 221.5 880.2C138.8 872.6 74.1999 812.8 60.5999 731.5C59.7999 726.5 55.8999 678.8 51.9999 625.5C48.0999 572.1 43.5999 510.5 41.9999 488.5C26.1999 274.6 25.7999 268.6 26.2999 254C26.9999 236.9 28.8999 224.7 33.5999 209.2C50.4999 153.2 94.0999 109 150 91.2001C168.4 85.4001 178 84.0001 228 80.5001C247.5 79.1 275.4 77.1 290 76.0001C304.6 74.9001 390.5 68.6001 481 62.0001C571.5 55.4 657.4 49.1001 672 48.0001C686.6 46.9 717.9 44.6001 741.5 42.9C765.2 41.2001 825.5 36.7001 875.5 33.0001C971.1 25.9 991.5 25.0001 1008.7 27.5001Z" fill="#FBFBFB"/>
<rect x="148.192" y="211.888" width="879" height="111.821" rx="23.5" transform="rotate(-4.83005 148.192 211.888)" fill="#FCFCFC" stroke="#FBFBFB" stroke-width="7"/>
<rect x="164.408" y="403.782" width="879" height="111.821" rx="23.5" transform="rotate(-4.83005 164.408 403.782)" fill="#FCFCFC" stroke="#FBFBFB" stroke-width="7"/>
<rect x="180.623" y="595.675" width="879" height="111.821" rx="23.5" transform="rotate(-4.83005 180.623 595.675)" fill="#FCFCFC" stroke="#FBFBFB" stroke-width="7"/>
</svg>
